<?xml version="1.0" encoding="UTF-8"?>
<svg version="1.1" xmlns="http://www.w3.org/2000/svg" width="684" height="276">
<path d="M0 0 C225.72 0 451.44 0 684 0 C684 91.08 684 182.16 684 276 C458.28 276 232.56 276 0 276 C0 184.92 0 93.84 0 0 Z " fill="#FDFDFD" transform="translate(0,0)"/>
<path d="M0 0 C20.79 -0.0928125 20.79 -0.0928125 42 -0.1875 C46.34414062 -0.21481201 50.68828125 -0.24212402 55.1640625 -0.27026367 C60.55078125 -0.28381348 60.55078125 -0.28381348 63.08837891 -0.28633118 C64.8260327 -0.29087809 66.56367825 -0.30130164 68.30126953 -0.31672668 C86.74045389 -0.47194814 103.90171372 1.34102823 120 11 C120.99 11.53625 121.98 12.0725 123 12.625 C133.06501223 20.59313468 139.82118091 31.95713375 141.71875 44.65625 C143.46372696 65.40208718 140.53818616 82.81338811 128 100 C125.25 101.375 125.25 101.375 123 102 C123 102.66 123 103.32 123 104 C120.20855953 106.30970251 117.10077553 108.13570065 114 110 C113.36191406 110.38800781 112.72382813 110.77601563 112.06640625 111.17578125 C98.33336479 118.33243666 80.36485846 117.42761432 65.33203125 117.29296875 C63.64367981 117.28853925 61.95532419 117.28549026 60.26696777 117.28381348 C54.1154143 117.26830078 47.96394992 117.22641942 41.8125 117.1875 C21.1153125 117.0946875 21.1153125 117.0946875 0 117 C0 78.39 0 39.78 0 0 Z " fill="#939499" transform="translate(26,78)"/>
<path d="M0 0 C17.44875 -0.061875 34.8975 -0.12375 52.875 -0.1875 C58.3701123 -0.21481201 63.86522461 -0.24212402 69.52685547 -0.27026367 C76.27368164 -0.28381348 76.27368164 -0.28381348 79.4392395 -0.28633118 C81.63465197 -0.29091659 83.83005722 -0.30142336 86.02542114 -0.31672668 C89.364573 -0.33882526 92.70326597 -0.34171336 96.04248047 -0.34057617 C97.00891417 -0.3513705 97.97534786 -0.36216482 98.97106743 -0.37328625 C106.46898536 -0.33931897 114.22600843 0.63891799 120.4375 5.1875 C125.94624472 11.23368323 126.45410854 17.87398122 126.3984375 25.6875 C126.40130768 26.58944092 126.40417786 27.49138184 126.40713501 28.4206543 C126.40916512 30.31657545 126.40370942 32.21251805 126.39111328 34.10839844 C126.37504448 36.99201793 126.39099791 39.87423603 126.41015625 42.7578125 C126.40817363 44.60937806 126.40432957 46.46094275 126.3984375 48.3125 C126.40451019 49.16481201 126.41058289 50.01712402 126.4168396 50.89526367 C126.34394716 57.17317384 125.60897606 63.33441894 121.01953125 68.0234375 C119.92705078 68.69246094 119.92705078 68.69246094 118.8125 69.375 C118.09707031 69.83648437 117.38164062 70.29796875 116.64453125 70.7734375 C110.2894088 73.72101276 103.89858723 74.33805703 97 74.625 C96.22527344 74.66367188 95.45054687 74.70234375 94.65234375 74.7421875 C92.76856585 74.83521357 90.88431744 74.91863175 89 75 C90.89224857 76.60856218 92.78856025 78.21186966 94.6875 79.8125 C95.21794922 80.26431641 95.74839844 80.71613281 96.29492188 81.18164062 C99.39242564 83.78506404 102.51619257 85.95672886 106 88 C107.68816933 89.64488294 109.35353315 91.31337542 111 93 C113.87238918 95.5378831 116.80668315 97.8711221 120 100 C120 100.66 120 101.32 120 102 C120.58426758 102.27255615 121.16853516 102.5451123 121.77050781 102.82592773 C123.96004637 103.97896003 125.74253163 105.24193743 127.671875 106.78515625 C128.33574219 107.31560547 128.99960937 107.84605469 129.68359375 108.39257812 C130.70646484 109.21918945 130.70646484 109.21918945 131.75 110.0625 C132.44738281 110.61744141 133.14476562 111.17238281 133.86328125 111.74414062 C137.67426131 114.80560308 137.67426131 114.80560308 139 116 C139 116.33 139 116.66 139 117 C133.09187458 117.12362482 127.18450226 117.2143513 121.27539062 117.2746582 C119.2654916 117.29979816 117.25568395 117.33391529 115.24609375 117.37719727 C112.35654156 117.43787215 109.46819808 117.46621447 106.578125 117.48828125 C105.68007141 117.51408768 104.78201782 117.5398941 103.85675049 117.56648254 C97.57895227 117.56930306 97.57895227 117.56930306 94.55371094 114.59448242 C94.04098633 113.73830322 93.52826172 112.88212402 93 112 C91.34997172 110.64613064 89.6825613 109.31321858 88 108 C85.50683694 105.56916602 83.08398255 103.08852215 80.6875 100.5625 C78.54074562 98.51559466 76.52160076 96.89605931 74.125 95.1875 C71.23871717 93.07663644 68.92615866 90.92283954 66.625 88.1875 C66.0371875 87.51976562 65.449375 86.85203125 64.84375 86.1640625 C63 84 63 84 61.21875 81.5234375 C56.75626197 76.27834895 53.58622489 74.82651057 46.796875 74.2109375 C40.51052403 73.82656301 34.32619495 73.96670424 28 74 C28 88.19 28 102.38 28 117 C18.76 117 9.52 117 0 117 C0 78.39 0 39.78 0 0 Z " fill="#949499" transform="translate(344,78)"/>
<path d="M0 0 C0.9591481 -0.00525696 1.9182962 -0.01051392 2.9065094 -0.01593018 C6.04599779 -0.02902721 9.18497023 -0.02042796 12.32446289 -0.01025391 C14.52584428 -0.01227776 16.72722502 -0.01519179 18.92860413 -0.01895142 C23.53059302 -0.02336099 28.13240658 -0.01698836 32.734375 -0.00292969 C38.60944316 0.01415107 44.48409975 0.00431907 50.35915279 -0.01364708 C54.90185093 -0.02453046 59.44445284 -0.02101754 63.98715401 -0.0132637 C66.15231946 -0.01127375 68.31749388 -0.01367823 70.48264885 -0.02070236 C94.81835026 -0.08233257 94.81835026 -0.08233257 103.79711914 5.07568359 C111.04636546 13.20362644 110.3079813 21.12567194 109.85961914 31.38818359 C100.47393521 33.45225516 91.47958161 34.84773626 81.85961914 35.38818359 C81.85961914 31.09818359 81.85961914 26.80818359 81.85961914 22.38818359 C54.79961914 22.38818359 27.73961914 22.38818359 -0.14038086 22.38818359 C-0.14038086 46.14818359 -0.14038086 69.90818359 -0.14038086 94.38818359 C26.91961914 94.38818359 53.97961914 94.38818359 81.85961914 94.38818359 C81.85961914 86.46818359 81.85961914 78.54818359 81.85961914 70.38818359 C67.33961914 70.38818359 52.81961914 70.38818359 37.85961914 70.38818359 C37.85961914 49.38818359 37.85961914 49.38818359 38.85961914 48.38818359 C41.06829745 48.29385374 43.28003435 48.27075928 45.49072266 48.2746582 C46.18337219 48.27451218 46.87602173 48.27436615 47.58966064 48.2742157 C49.8893136 48.27491485 52.18888651 48.28270731 54.48852539 48.29052734 C56.07893327 48.29239152 57.66934171 48.29381542 59.25975037 48.29481506 C63.45357844 48.29864031 67.64737209 48.30847064 71.84118652 48.31951904 C76.11750828 48.32973303 80.39383558 48.33431265 84.67016602 48.33935547 C93.06666622 48.35009291 101.4631384 48.3671694 109.85961914 48.38818359 C109.96156896 55.61055355 110.03131453 62.8327359 110.0793457 70.05566406 C110.09938238 72.50951065 110.12661946 74.96330996 110.16137695 77.41699219 C110.21024413 80.95698762 110.23266834 84.49634828 110.25024414 88.03662109 C110.27088928 89.12244476 110.29153442 90.20826843 110.31280518 91.32699585 C110.31512243 99.30615791 109.2241451 106.84179137 103.54711914 112.82568359 C96.53977403 116.89972145 91.46248647 117.82468534 83.4296875 117.76049805 C81.89179314 117.76597404 81.89179314 117.76597404 80.3228302 117.77156067 C76.94820371 117.77963854 73.57406152 117.76607956 70.19946289 117.75146484 C67.84729513 117.75094595 65.49512693 117.75146479 63.14295959 117.75297546 C58.21958928 117.75288587 53.29638313 117.74248091 48.37304688 117.72436523 C42.06588584 117.70166625 35.7589643 117.70113766 29.45177364 117.70788288 C24.59702937 117.71122583 19.7423396 117.70458678 14.88760567 117.69475365 C12.56201017 117.69090795 10.23640861 117.68975082 7.91081047 117.69133949 C4.66047507 117.69171078 1.41044563 117.67907222 -1.83984375 117.6628418 C-2.79845306 117.66531921 -3.75706238 117.66779663 -4.74472046 117.67034912 C-12.93766093 117.60513192 -18.17606187 116.0684874 -24.14038086 110.38818359 C-24.14038086 109.72818359 -24.14038086 109.06818359 -24.14038086 108.38818359 C-24.80038086 108.38818359 -25.46038086 108.38818359 -26.14038086 108.38818359 C-29.91399526 99.26158636 -29.59615471 89.94817932 -29.57397461 80.26318359 C-29.5785445 78.50781046 -29.58385246 76.75243912 -29.58985901 74.99707031 C-29.59875422 71.33244521 -29.59640747 67.66803846 -29.58642578 64.00341797 C-29.57493 59.32982398 -29.59517512 54.65698491 -29.62434292 49.98348999 C-29.64277109 46.36298923 -29.64239952 42.74266729 -29.6367054 39.12213135 C-29.63655305 37.3999119 -29.64252518 35.67767966 -29.65499687 33.95550537 C-29.72085016 23.37495369 -29.43534266 14.32533667 -23.01538086 5.45068359 C-16.19488596 0.55771986 -8.16596438 -0.05623403 0 0 Z " fill="#949499" transform="translate(214.140380859375,77.61181640625)"/>
<path d="M0 0 C7.981875 -0.04125 15.96375 -0.0825 24.1875 -0.125 C27.92549927 -0.15231201 27.92549927 -0.15231201 31.73901367 -0.18017578 C66.49040592 -0.33079422 66.49040592 -0.33079422 76.1328125 9.08203125 C82.80057468 17.27026639 84.49614611 23.94104667 84.375 34.3125 C84.38660156 35.29412109 84.39820313 36.27574219 84.41015625 37.28710938 C84.38354236 43.98937357 83.27962722 49.70203216 81 56 C80.34 56 79.68 56 79 56 C78.76796875 56.75023437 78.5359375 57.50046875 78.296875 58.2734375 C75.86547364 63.38523916 70.94852453 65.61146486 66 68 C54.92202136 71.42387694 43.36458411 72.16658282 31.8359375 72.09765625 C31.02036377 72.09664917 30.20479004 72.09564209 29.36450195 72.09460449 C26.36798664 72.08944049 23.37149165 72.07548028 20.375 72.0625 C13.65125 72.041875 6.9275 72.02125 0 72 C0 48.24 0 24.48 0 0 Z " fill="#FCFCFC" transform="translate(54,100)"/>
<path d="M0 0 C10.89 0 21.78 0 33 0 C34.32 2.31 35.64 4.62 37 7 C38.1521034 8.99568291 39.30573615 10.99048374 40.4609375 12.984375 C41.41613281 14.63566406 41.41613281 14.63566406 42.390625 16.3203125 C43.70480931 18.5916783 45.01990139 20.86251914 46.3359375 23.1328125 C50.32645381 30.03576209 54.21203778 36.98411338 58 44 C62.17917303 51.70747984 66.43322377 59.36873352 70.75 67 C71.32621094 68.02222656 71.90242187 69.04445313 72.49609375 70.09765625 C73.04910156 71.07605469 73.60210938 72.05445313 74.171875 73.0625 C74.6678418 73.94035156 75.16380859 74.81820312 75.67480469 75.72265625 C76.72053115 77.51973371 77.84667288 79.27000932 79 81 C79.36351562 80.33355469 79.72703125 79.66710937 80.1015625 78.98046875 C80.85566406 77.59794922 80.85566406 77.59794922 81.625 76.1875 C82.17027344 75.1871875 82.71554687 74.186875 83.27734375 73.15625 C84.39232678 71.1133786 85.50937932 69.0716348 86.62890625 67.03125 C87.14324219 66.0928125 87.65757812 65.154375 88.1875 64.1875 C88.65542969 63.33542969 89.12335938 62.48335937 89.60546875 61.60546875 C91.12536884 58.76576746 92.55958341 55.88083317 94 53 C103.24 53 112.48 53 122 53 C122 53.99 122 54.98 122 56 C121.34 56 120.68 56 120 56 C119.78859375 56.77085937 119.5771875 57.54171875 119.359375 58.3359375 C117.48537976 63.38710859 114.87436499 67.92931237 112.25 72.625 C107.98662676 80.33755176 103.82086222 88.05662854 100 96 C99.34 96 98.68 96 98 96 C97.79375 96.763125 97.5875 97.52625 97.375 98.3125 C94.97075494 104.76024811 91.66990302 111.87023322 87 117 C84.82348633 117.45410156 84.82348633 117.45410156 82.33203125 117.390625 C80.99301758 117.37128906 80.99301758 117.37128906 79.62695312 117.3515625 C78.69818359 117.31804687 77.76941406 117.28453125 76.8125 117.25 C75.87212891 117.23195313 74.93175781 117.21390625 73.96289062 117.1953125 C71.64090111 117.1481655 69.3209631 117.08238231 67 117 C66.53102295 116.17798096 66.0620459 115.35596191 65.57885742 114.5090332 C63.82929662 111.44302692 62.07924185 108.37730368 60.32885742 105.31176758 C59.57312701 103.98798654 58.81759043 102.66409483 58.06225586 101.34008789 C56.97301041 99.43085675 55.88305557 97.5220321 54.79296875 95.61328125 C54.45847214 95.02662186 54.12397552 94.43996246 53.77934265 93.83552551 C52.31184151 91.26731195 50.82716576 88.72256643 49.26293945 86.21166992 C48 84 48 84 48 82 C47.34 82 46.68 82 46 82 C44.99515796 80.04414675 43.99626195 78.08523763 43 76.125 C42.443125 75.03445312 41.88625 73.94390625 41.3125 72.8203125 C40 70 40 70 40 68 C39.34 68 38.68 68 38 68 C37.16180842 66.37750059 36.3295884 64.75191503 35.5 63.125 C35.0359375 62.22007812 34.571875 61.31515625 34.09375 60.3828125 C33 58 33 58 33 56 C32.34 56 31.68 56 31 56 C30.19949219 54.45505859 30.19949219 54.45505859 29.3828125 52.87890625 C24.27516045 43.08952996 18.8606249 33.53633744 13.21533203 24.04882812 C11.24781129 20.73194704 9.304261 17.4017565 7.375 14.0625 C6.72273438 12.93972656 6.07046875 11.81695312 5.3984375 10.66015625 C4 8 4 8 4 6 C3.34 6 2.68 6 2 6 C1.34 4.02 0.68 2.04 0 0 Z " fill="#949499" transform="translate(475,78)"/>
<path d="M0 0 C16.02124106 -0.12032643 16.02124106 -0.12032643 22.86132812 -0.14648438 C27.52492539 -0.16440359 32.1883456 -0.18558036 36.85180664 -0.22631836 C40.61248525 -0.25896368 44.37297394 -0.27686385 48.13378334 -0.28463173 C49.56709087 -0.290166 51.00038826 -0.30097321 52.43361473 -0.31719017 C54.44416503 -0.33903055 56.45490728 -0.34022597 58.46557617 -0.34057617 C59.60919113 -0.34723801 60.75280609 -0.35389984 61.93107605 -0.36076355 C65.65627216 0.07714726 68.32910473 1.32910473 71 4 C71.08700342 5.63472882 71.10701063 7.27314055 71.09765625 8.91015625 C71.09282227 10.39418945 71.09282227 10.39418945 71.08789062 11.90820312 C71.07532227 13.46958008 71.07532227 13.46958008 71.0625 15.0625 C71.05798828 16.10728516 71.05347656 17.15207031 71.04882812 18.22851562 C71.03699913 20.8190666 71.02051689 23.40950559 71 26 C70.34 26 69.68 26 69 26 C68.505 27.485 68.505 27.485 68 29 C64.67071876 30.10976041 62.19972643 30.12030895 58.69262695 30.11352539 C57.39150467 30.11344986 56.09038239 30.11337433 54.74983215 30.11329651 C53.3293148 30.10818985 51.90879783 30.10297385 50.48828125 30.09765625 C49.03525338 30.09579091 47.58222489 30.09436756 46.12919617 30.09336853 C42.30693828 30.08955246 38.48471845 30.07972993 34.66247559 30.06866455 C30.07528215 30.05663124 25.48807598 30.05204385 20.90087128 30.04621124 C13.93388772 30.0365177 6.96698767 30.0173548 0 30 C0 20.1 0 10.2 0 0 Z " fill="#FDFDFD" transform="translate(372,100)"/>
<path d="M0 0 C3.16282969 1.81177842 5.49215587 3.74944648 7.125 7.1171875 C8.86397968 13.57314955 9.23474861 21.60477342 6 27.625 C2.87370283 31.53287146 0.62288699 33.42748342 -4.25 34.4375 C-9.95568089 34.97694619 -14.38095323 34.75730462 -19.25 31.4375 C-23.03761819 27.77305639 -25.00678108 24.54843969 -25.41796875 19.2890625 C-25.47030772 13.32242025 -24.80081651 8.90731889 -21.5625 3.75 C-15.53553937 -2.27696063 -7.62834475 -3.28344338 0 0 Z " fill="#959499" transform="translate(249.25,230.5625)"/>
<path d="M0 0 C2.990625 -0.0825 5.98125 -0.165 9.0625 -0.25 C9.99070557 -0.28641602 10.91891113 -0.32283203 11.87524414 -0.36035156 C17.79399072 -0.43877069 21.16143264 0.5537808 26 4 C30.26072105 9.36026197 29.60980411 16.4743041 29 23 C28.39549252 25.01965719 27.74543808 27.02800443 27 29 C26.34 29 25.68 29 25 29 C24.67 29.99 24.34 30.98 24 32 C18.94042555 35.42359218 14.48383945 35.36828887 8.625 35.1875 C4.355625 35.0946875 4.355625 35.0946875 0 35 C0 23.45 0 11.9 0 0 Z " fill="#929297" transform="translate(26,230)"/>
<path d="M0 0 C9.9 0 19.8 0 30 0 C28.61066083 4.16801751 27.56508718 7.06713202 25.43359375 10.70703125 C24.94826172 11.54041016 24.46292969 12.37378906 23.96289062 13.23242188 C23.45951172 14.08384766 22.95613281 14.93527344 22.4375 15.8125 C21.93025391 16.68326172 21.42300781 17.55402344 20.90039062 18.45117188 C17.16171288 24.83828712 17.16171288 24.83828712 16 26 C13.85441173 26.08775605 11.70595579 26.10695219 9.55859375 26.09765625 C8.25341797 26.09443359 6.94824219 26.09121094 5.60351562 26.08789062 C4.2148431 26.07953401 2.82617123 26.07106905 1.4375 26.0625 C0.04492344 26.05748666 -1.34765481 26.05292347 -2.74023438 26.04882812 C-6.1601987 26.03699434 -9.58007844 26.0205088 -13 26 C-8.66666667 17.33333333 -4.33333333 8.66666667 0 0 Z " fill="#015BA6" transform="translate(621,33)"/>
<path d="M0 0 C1.16781006 0.00523682 2.33562012 0.01047363 3.53881836 0.01586914 C4.79887695 0.0190918 6.05893555 0.02231445 7.35717773 0.02563477 C8.6976732 0.03399136 10.03816799 0.04245632 11.37866211 0.05102539 C12.72306153 0.05603879 14.06746271 0.06060197 15.41186523 0.06469727 C18.71334151 0.07653051 22.01473014 0.09301568 25.31616211 0.11352539 C24.10171733 4.01461943 22.70577913 7.50886236 20.71459961 11.07446289 C20.05210205 12.27014893 20.05210205 12.27014893 19.3762207 13.48999023 C18.82015137 14.47950684 18.26408203 15.46902344 17.69116211 16.48852539 C15.91741211 19.66477539 14.14366211 22.84102539 12.31616211 26.11352539 C3.07616211 26.11352539 -6.16383789 26.11352539 -15.68383789 26.11352539 C-14.35617411 22.13053404 -13.24623775 19.00808462 -11.33618164 15.40649414 C-10.8959668 14.57311523 -10.45575195 13.73973633 -10.00219727 12.88110352 C-9.54651367 12.02967773 -9.09083008 11.17825195 -8.62133789 10.30102539 C-8.16178711 9.43026367 -7.70223633 8.55950195 -7.22875977 7.66235352 C-3.23429727 0.13680963 -3.23429727 0.13680963 0 0 Z " fill="#D22E21" transform="translate(589.683837890625,97.886474609375)"/>
<path d="M0 0 C2.88916016 -0.34057617 2.88916016 -0.34057617 6.5390625 -0.29296875 C8.49199219 -0.2784668 8.49199219 -0.2784668 10.484375 -0.26367188 C11.86458923 -0.23860388 13.24479756 -0.21320902 14.625 -0.1875 C16.01300663 -0.17245517 17.40102867 -0.15876641 18.7890625 -0.14648438 C22.19309509 -0.1110257 25.59635622 -0.06160298 29 0 C27.52672176 4.65921702 25.70044116 8.3736116 23.0625 12.5 C20.43240065 16.62950179 18.20314689 20.59370622 16 25 C6.76 25 -2.48 25 -12 25 C-11.23111059 21.15555294 -10.75419581 19.14925576 -9.00390625 15.8984375 C-8.61009766 15.16109375 -8.21628906 14.42375 -7.81054688 13.6640625 C-7.39869141 12.90867187 -6.98683594 12.15328125 -6.5625 11.375 C-6.15451172 10.611875 -5.74652344 9.84875 -5.32617188 9.0625 C-3.64891714 5.94329869 -1.96693949 2.95040923 0 0 Z " fill="#6ABC51" transform="translate(604,66)"/>
<path d="M0 0 C8 0 8 0 9.8828125 1.8359375 C10.29273438 2.67382812 10.70265625 3.51171875 11.125 4.375 C11.82882812 5.72851562 11.82882812 5.72851562 12.546875 7.109375 C13.02640625 8.06328125 13.5059375 9.0171875 14 10 C15.10998856 11.88392553 16.23436261 13.75947156 17.375 15.625 C18.24125 17.06875 19.1075 18.5125 20 20 C20.33 13.4 20.66 6.8 21 0 C23.31 0 25.62 0 28 0 C28 11.22 28 22.44 28 34 C25.36 34 22.72 34 20 34 C17.86328125 31.65625 17.86328125 31.65625 16.3125 28.5 C13.7259494 23.41675416 11.07004713 18.91207541 8 14 C7.67 20.93 7.34 27.86 7 35 C4.69 35 2.38 35 0 35 C0 23.45 0 11.9 0 0 Z " fill="#9E9EA1" transform="translate(360,230)"/>
<path d="M0 0 C11.52164009 -0.55353075 11.52164009 -0.55353075 17 3 C17 3.66 17 4.32 17 5 C18.32 5.66 19.64 6.32 21 7 C21 8.32 21 9.64 21 11 C18.69 11.33 16.38 11.66 14 12 C14 11.34 14 10.68 14 10 C13.34 10 12.68 10 12 10 C12 9.34 12 8.68 12 8 C10.41676312 7.972807 8.83338938 7.95351694 7.25 7.9375 C6.36828125 7.92589844 5.4865625 7.91429687 4.578125 7.90234375 C2.2181162 7.99173802 0.25501476 8.33087179 -2 9 C-3.61651854 14.64477845 -4.05347698 20.65361946 -1.625 26.0625 C-0.13747501 28.0970615 -0.13747501 28.0970615 2 29 C6.16735187 29.15725856 9.94441928 28.98317108 14 28 C14 26.35 14 24.7 14 23 C11.36 23 8.72 23 6 23 C6 21.02 6 19.04 6 17 C11.28 17 16.56 17 22 17 C22 21.62 22 26.24 22 31 C20.68 31.33 19.36 31.66 18 32 C18 32.66 18 33.32 18 34 C12.20907272 36.57374546 6.21790537 36.7079371 0 36 C-3.5625 34.1875 -3.5625 34.1875 -6 32 C-6.5775 31.54625 -7.155 31.0925 -7.75 30.625 C-11.64320818 25.56382937 -11.66276872 19.0993933 -11 13 C-10.21789109 10.45475538 -9.23881071 8.3743872 -8 6 C-7.34 6 -6.68 6 -6 6 C-6 5.34 -6 4.68 -6 4 C-4.02 3.34 -2.04 2.68 0 2 C0 1.34 0 0.68 0 0 Z " fill="#99999D" transform="translate(130,229)"/>
<path d="M0 0 C8 0 8 0 10.00976562 1.80419922 C10.70102539 3.04194092 10.70102539 3.04194092 11.40625 4.3046875 C11.921875 5.19800781 12.4375 6.09132812 12.96875 7.01171875 C13.4740625 7.95660156 13.979375 8.90148437 14.5 9.875 C15.03625 10.81214844 15.5725 11.74929687 16.125 12.71484375 C20 19.58506059 20 19.58506059 20 22 C20.66 22 21.32 22 22 22 C22 14.74 22 7.48 22 0 C23.98 0 25.96 0 28 0 C28 11.22 28 22.44 28 34 C25.36 34 22.72 34 20 34 C17.86328125 31.65625 17.86328125 31.65625 16.3125 28.5 C13.7259494 23.41675416 11.07004713 18.91207541 8 14 C7.67 20.93 7.34 27.86 7 35 C4.69 35 2.38 35 0 35 C0 23.45 0 11.9 0 0 Z " fill="#939396" transform="translate(624,230)"/>
<path d="M0 0 C2.64 0 5.28 0 8 0 C11.55457123 6.81070218 14.59994953 13.68957219 17.3125 20.875 C17.67150391 21.79796875 18.03050781 22.7209375 18.40039062 23.671875 C18.73876953 24.56132812 19.07714844 25.45078125 19.42578125 26.3671875 C19.72911377 27.16237793 20.03244629 27.95756836 20.3449707 28.77685547 C21 31 21 31 21 35 C18.69 35 16.38 35 14 35 C12.74335022 32.09399739 12 30.20395416 12 27 C7.05 27 2.1 27 -3 27 C-3.66 29.31 -4.32 31.62 -5 34 C-7.31 34 -9.62 34 -12 34 C-11.40266243 29.6579402 -10.340271 25.87697694 -8.75 21.796875 C-8.3065625 20.6521875 -7.863125 19.5075 -7.40625 18.328125 C-6.71015625 16.55695313 -6.71015625 16.55695313 -6 14.75 C-5.5359375 13.55375 -5.071875 12.3575 -4.59375 11.125 C-1.1932398 2.38647959 -1.1932398 2.38647959 0 0 Z " fill="#9D9DA2" transform="translate(507,230)"/>
<path d="M0 0 C2.64 0 5.28 0 8 0 C8 4.29 8 8.58 8 13 C12.29 13 16.58 13 21 13 C21 8.71 21 4.42 21 0 C23.31 0 25.62 0 28 0 C28 11.55 28 23.1 28 35 C25.69 35 23.38 35 21 35 C21 30.05 21 25.1 21 20 C16.71 20 12.42 20 8 20 C8.01160156 20.99902344 8.02320313 21.99804688 8.03515625 23.02734375 C8.04417969 24.31769531 8.05320312 25.60804688 8.0625 26.9375 C8.07410156 28.22527344 8.08570313 29.51304687 8.09765625 30.83984375 C8 34 8 34 7 35 C4.69 35 2.38 35 0 35 C0 23.45 0 11.9 0 0 Z " fill="#969799" transform="translate(462,230)"/>
<path d="M0 0 C2.31 0 4.62 0 7 0 C9.00390625 2.0546875 9.00390625 2.0546875 10.5625 4.875 C11.13226563 5.86886719 11.70203125 6.86273438 12.2890625 7.88671875 C12.85367188 8.91410156 13.41828125 9.94148437 14 11 C15.13934274 12.89974108 16.28468267 14.79590537 17.4375 16.6875 C18.283125 18.110625 19.12875 19.53375 20 21 C20.33 14.07 20.66 7.14 21 0 C22.98 0 24.96 0 27 0 C27 11.22 27 22.44 27 34 C20 34 20 34 17.9609375 32.12890625 C17.43757813 31.28199219 16.91421875 30.43507813 16.375 29.5625 C15.80265625 28.65628906 15.2303125 27.75007813 14.640625 26.81640625 C13.82851562 25.42228516 13.82851562 25.42228516 13 24 C12.49984375 23.14277344 11.9996875 22.28554687 11.484375 21.40234375 C9.91826815 18.63465493 8.4220687 15.84413741 7 13 C6.67 19.93 6.34 26.86 6 34 C4.02 34 2.04 34 0 34 C0 22.78 0 11.56 0 0 Z " fill="#939398" transform="translate(191,230)"/>
<path d="M0 0 C4.13319718 1.53081377 6.86129288 3.07903694 9 7 C9 8.32 9 9.64 9 11 C5.625 11.1875 5.625 11.1875 2 11 C1.34 10.01 0.68 9.02 0 8 C-2.19454681 7.42006301 -2.19454681 7.42006301 -4.625 7.3125 C-5.44226563 7.24675781 -6.25953125 7.18101562 -7.1015625 7.11328125 C-7.72804688 7.07589844 -8.35453125 7.03851563 -9 7 C-9 8.65 -9 10.3 -9 12 C-7.865625 12.2475 -6.73125 12.495 -5.5625 12.75 C-0.06302047 14.12241913 5.93281272 15.93281272 10 20 C10.84557767 24.16054148 11.01177024 28.23889821 8.85546875 31.9921875 C5.23989962 35.66933567 1.96548756 36.40538619 -3.125 36.5625 C-7.62932892 36.47475333 -10.33778708 35.64632509 -14 33 C-18.09803922 27.93137255 -18.09803922 27.93137255 -17.75 24.625 C-17.5025 24.08875 -17.255 23.5525 -17 23 C-14.1875 22.6875 -14.1875 22.6875 -11 23 C-10.525625 23.804375 -10.05125 24.60875 -9.5625 25.4375 C-8.16879023 28.38618095 -8.16879023 28.38618095 -4.5 28.9375 C-0.88461063 29.3343558 -0.88461063 29.3343558 2 27 C1.94882624 25.03177511 1.94882624 25.03177511 1 23 C-1.60823109 21.8110219 -1.60823109 21.8110219 -4.75 21.0625 C-13.24082569 18.43438729 -13.24082569 18.43438729 -16 14 C-16.66672358 10.8471885 -16.75170858 8.14190695 -16 5 C-11.15631897 -0.09861161 -6.73127519 -0.63459833 0 0 Z " fill="#98989C" transform="translate(411,229)"/>
<path d="M0 0 C8.58 0 17.16 0 26 0 C26 1.98 26 3.96 26 6 C20.06 6 14.12 6 8 6 C8 8.31 8 10.62 8 13 C13.61 13 19.22 13 25 13 C25 14.98 25 16.96 25 19 C19.06 19 13.12 19 7 19 C7 22.3 7 25.6 7 29 C13.27 29 19.54 29 26 29 C26 30.98 26 32.96 26 35 C17.42 35 8.84 35 0 35 C0 23.45 0 11.9 0 0 Z " fill="#929296" transform="translate(158,230)"/>
<path d="M0 0 C3.71052627 1.57894735 5.98209901 3.4952246 8 7 C8 8.32 8 9.64 8 11 C5.69 11 3.38 11 1 11 C0.67 9.68 0.34 8.36 0 7 C-3.3 7.33 -6.6 7.66 -10 8 C-9.34 9.32 -8.68 10.64 -8 12 C-6.0889728 12.49423117 -4.1734422 12.97803265 -2.23828125 13.3671875 C1.83310858 14.51826107 5.99041372 16.99041372 9 20 C9.66349779 25.11841154 9.86637535 28.82076688 6.75 33.0625 C1.44554836 36.79972729 -4.68595787 36.67449708 -11 36 C-14.37896604 34.13812075 -15.57141043 32.83677011 -17.3125 29.4375 C-18 27 -18 27 -18 24 C-14.6875 23.6875 -14.6875 23.6875 -11 24 C-10.525625 24.804375 -10.05125 25.60875 -9.5625 26.4375 C-8.30501751 29.15226206 -8.30501751 29.15226206 -6.046875 29.5546875 C-4.03911276 29.78635237 -2.01864355 29.90072245 0 30 C0 29.34 0 28.68 0 28 C0.66 28 1.32 28 2 28 C2 26.35 2 24.7 2 23 C1.18015625 22.80664062 0.3603125 22.61328125 -0.484375 22.4140625 C-1.56203125 22.15367187 -2.6396875 21.89328125 -3.75 21.625 C-5.35101563 21.24214844 -5.35101563 21.24214844 -6.984375 20.8515625 C-10.83207641 19.76503542 -13.23531011 18.95586236 -15.75 15.8125 C-17.35457139 12.20221437 -17.55919321 9.91435244 -17 6 C-11.8571955 -0.22550018 -7.73347015 -0.68308254 0 0 Z " fill="#959598" transform="translate(280,229)"/>
<path d="M0 0 C2.5 1.6875 2.5 1.6875 4.5 4.6875 C4.625 7.375 4.625 7.375 4.5 9.6875 C2.19 9.6875 -0.12 9.6875 -2.5 9.6875 C-2.83 8.6975 -3.16 7.7075 -3.5 6.6875 C-6.14 6.6875 -8.78 6.6875 -11.5 6.6875 C-11.5 8.0075 -11.5 9.3275 -11.5 10.6875 C-10.69175781 10.94144531 -9.88351562 11.19539062 -9.05078125 11.45703125 C-7.44783203 11.97330078 -7.44783203 11.97330078 -5.8125 12.5 C-4.22888672 13.00466797 -4.22888672 13.00466797 -2.61328125 13.51953125 C4.80810811 16.30371622 4.80810811 16.30371622 6.5 19.6875 C6.6346515 24.5830438 6.19296109 27.83462481 3.0625 31.6875 C-1.40146899 35.17157336 -4.85981236 35.14458391 -10.4375 35.09765625 C-14.45733757 34.55928515 -16.49378776 33.27939112 -19.296875 30.421875 C-21.02917377 27.92466508 -21.42848711 25.69104142 -21.5 22.6875 C-18.1875 22.375 -18.1875 22.375 -14.5 22.6875 C-14.025625 23.491875 -13.55125 24.29625 -13.0625 25.125 C-11.80501751 27.83976206 -11.80501751 27.83976206 -9.546875 28.2421875 C-7.53911276 28.47385237 -5.51864355 28.58822245 -3.5 28.6875 C-3.17 27.6975 -2.84 26.7075 -2.5 25.6875 C-1.84 25.6875 -1.18 25.6875 -0.5 25.6875 C-1.1315578 23.67075047 -1.1315578 23.67075047 -2.5 21.6875 C-4.89905842 20.76875676 -4.89905842 20.76875676 -7.6875 20.3125 C-13.05304587 18.99935325 -17.24033225 17.32874878 -20.5 12.6875 C-21.05281827 9.12489339 -20.85649568 6.85421313 -19.8125 3.4375 C-14.98921809 -2.99354255 -6.91841358 -2.59440509 0 0 Z " fill="#98979B" transform="translate(315.5,230.3125)"/>
<path d="M0 0 C8.25 0 16.5 0 25 0 C25 1.65 25 3.3 25 5 C19.06 5 13.12 5 7 5 C7 7.64 7 10.28 7 13 C12.61 13 18.22 13 24 13 C24 14.98 24 16.96 24 19 C18.39 19 12.78 19 7 19 C7 22.3 7 25.6 7 29 C13.27 29 19.54 29 26 29 C26 30.98 26 32.96 26 35 C17.42 35 8.84 35 0 35 C0 23.45 0 11.9 0 0 Z " fill="#98989B" transform="translate(328,230)"/>
<path d="M0 0 C8.25 0 16.5 0 25 0 C25 1.65 25 3.3 25 5 C19.06 5 13.12 5 7 5 C7 7.64 7 10.28 7 13 C12.61 13 18.22 13 24 13 C24 14.98 24 16.96 24 19 C18.39 19 12.78 19 7 19 C7 22.3 7 25.6 7 29 C13.27 29 19.54 29 26 29 C26 30.98 26 32.96 26 35 C17.42 35 8.84 35 0 35 C0 23.45 0 11.9 0 0 Z " fill="#9A9A9E" transform="translate(592,230)"/>
<path d="M0 0 C8.58 0 17.16 0 26 0 C26 1.98 26 3.96 26 6 C19.73 6 13.46 6 7 6 C7 8.31 7 10.62 7 13 C12.61 13 18.22 13 24 13 C24 14.98 24 16.96 24 19 C18.39 19 12.78 19 7 19 C7 22.3 7 25.6 7 29 C13.27 29 19.54 29 26 29 C26 30.65 26 32.3 26 34 C17.42 34 8.84 34 0 34 C0 22.78 0 11.56 0 0 Z " fill="#99989D" transform="translate(75,230)"/>
<path d="M0 0 C4.26732117 2.12314994 7.40780258 4.29743241 9 8.875 C9 9.57625 9 10.2775 9 11 C6.69 11.33 4.38 11.66 2 12 C1.67 10.68 1.34 9.36 1 8 C-2.3 7.67 -5.6 7.34 -9 7 C-12.20363569 11.00454461 -13.60339844 13.61953121 -13.3359375 18.96875 C-12.75529281 22.47962484 -11.5641531 26.4358469 -9 29 C-5.47362528 29.15672777 -2.38094149 29.04028969 1 28 C1.33 26.35 1.66 24.7 2 23 C4.31 23.33 6.62 23.66 9 24 C8.68169969 27.50130346 8.40659476 29.51208629 6.125 32.25 C0.96528716 36.49917528 -2.54350653 36.46710966 -9 36 C-14.16167968 34.94420188 -17.06755264 31.16667362 -20 27 C-22.07582324 20.77253028 -21.46398954 14.19377459 -19.16015625 8.0859375 C-15.11820155 0.81858461 -7.95287452 -1.89713121 0 0 Z " fill="#9B9A9D" transform="translate(447,229)"/>
<path d="M0 0 C7.59 0 15.18 0 23 0 C23 1.98 23 3.96 23 6 C17.72 6 12.44 6 7 6 C7 8.64 7 11.28 7 14 C11.62 14 16.24 14 21 14 C21 15.98 21 17.96 21 20 C16.38 20 11.76 20 7 20 C7 24.62 7 29.24 7 34 C4.69 34 2.38 34 0 34 C0 22.78 0 11.56 0 0 Z " fill="#959499" transform="translate(533,230)"/>
<path d="M0 0 C3.28931514 1.72689045 3.8140267 2.4420801 5 6 C5.068991 8.06145107 5.08467727 10.12501401 5.0625 12.1875 C5.05347656 13.27417969 5.04445312 14.36085937 5.03515625 15.48046875 C5.02355469 16.31191406 5.01195312 17.14335937 5 18 C4.34 18 3.68 18 3 18 C3 18.99 3 19.98 3 21 C-0.41540279 23.10178633 -3.02251415 23.56821226 -7 23 C-10.21791131 20.36716348 -12.46484609 17.85901076 -14 14 C-14.21801164 9.46535799 -13.76326855 5.33571996 -11.5 1.375 C-7.71600913 -0.70619498 -4.22035352 -0.65167223 0 0 Z " fill="#FAFAFB" transform="translate(245,236)"/>
<path d="M0 0 C9.24 0 18.48 0 28 0 C28 1.65 28 3.3 28 5 C24.37 5 20.74 5 17 5 C17 14.57 17 24.14 17 34 C14.69 34 12.38 34 10 34 C10 24.76 10 15.52 10 6 C6.7 6 3.4 6 0 6 C0 4.02 0 2.04 0 0 Z " fill="#99989D" transform="translate(560,230)"/>
<path d="M0 0 C9.9 0 19.8 0 30 0 C28.61066083 4.16801751 27.56508718 7.06713202 25.43359375 10.70703125 C24.94826172 11.54041016 24.46292969 12.37378906 23.96289062 13.23242188 C23.45951172 14.08384766 22.95613281 14.93527344 22.4375 15.8125 C21.93025391 16.68326172 21.42300781 17.55402344 20.90039062 18.45117188 C17.16171288 24.83828712 17.16171288 24.83828712 16 26 C13.85441173 26.08775605 11.70595579 26.10695219 9.55859375 26.09765625 C8.25341797 26.09443359 6.94824219 26.09121094 5.60351562 26.08789062 C4.2148431 26.07953401 2.82617123 26.07106905 1.4375 26.0625 C0.04492344 26.05748666 -1.34765481 26.05292347 -2.74023438 26.04882812 C-6.1601987 26.03699434 -9.58007844 26.0205088 -13 26 C-8.66666667 17.33333333 -4.33333333 8.66666667 0 0 Z M2 2 C2 3.65 2 5.3 2 7 C1.34 7 0.68 7 0 7 C0 7.66 0 8.32 0 9 C-1.98 9.99 -1.98 9.99 -4 11 C-3.9175 11.763125 -3.835 12.52625 -3.75 13.3125 C-3.8325 14.199375 -3.915 15.08625 -4 16 C-5.31337396 17.0260734 -6.64664105 18.02727325 -8 19 C-8 20.32 -8 21.64 -8 23 C-1.4 23 5.2 23 12 23 C12.99 21.02 13.98 19.04 15 17 C18.1875 15.625 18.1875 15.625 21 15 C21 13.68 21 12.36 21 11 C21.66 11 22.32 11 23 11 C23.73080266 9.02253397 24.39421747 7.01927511 25 5 C24.505 4.01 24.505 4.01 24 3 C16.74 2.67 9.48 2.34 2 2 Z " fill="#145994" transform="translate(621,33)"/>
<path d="M0 0 C11 0 11 0 13.6640625 1.59375 C15.4080054 4.73488692 15.46534275 6.91914177 15.375 10.5 C15.36210938 11.6240625 15.34921875 12.748125 15.3359375 13.90625 C15.01283472 16.88180116 14.72584466 18.58161894 13 21 C9 23 9 23 0 23 C0 15.41 0 7.82 0 0 Z " fill="#F9F9FA" transform="translate(33,236)"/>
<path d="M0 0 C0.99 0 1.98 0 3 0 C2.67 0.66 2.34 1.32 2 2 C1.84391977 4.40560273 1.74195542 6.78702772 1.68359375 9.1953125 C1.66281265 9.90275604 1.64203156 10.61019958 1.62062073 11.33908081 C1.55518922 13.60095425 1.49627026 15.86294462 1.4375 18.125 C1.39430867 19.65756422 1.35069418 21.19011657 1.30664062 22.72265625 C1.19871711 26.48165268 1.09959717 30.24073675 1 34 C5.95 33.67 10.9 33.34 16 33 C16 31.68 16 30.36 16 29 C17.29735507 27.95374591 18.63266972 26.95298777 20 26 C21.11221955 22.66334135 21.20253779 20.01220338 21.25 16.5 C21.27578125 15.3553125 21.3015625 14.210625 21.328125 13.03125 C21.22922253 10.06767572 21.22922253 10.06767572 19.83984375 8.13671875 C17.32028294 6.58004742 15.25427834 6.48554578 12.3125 6.3125 C11.31863281 6.24675781 10.32476562 6.18101562 9.30078125 6.11328125 C8.54152344 6.07589844 7.78226563 6.03851563 7 6 C7 5.67 7 5.34 7 5 C7.60328125 4.96261719 8.2065625 4.92523438 8.828125 4.88671875 C14.99367772 4.43746659 14.99367772 4.43746659 20 1 C23.37082558 2.44463953 25.58037292 4.24663125 28 7 C29.09995958 10.29987875 29.16747591 12.84032287 29.1875 16.3125 C29.20167969 17.42238281 29.21585938 18.53226563 29.23046875 19.67578125 C28.99333157 23.0961836 28.22108501 25.80973443 27 29 C26.34 29 25.68 29 25 29 C24.67 29.99 24.34 30.98 24 32 C18.94042555 35.42359218 14.48383945 35.36828887 8.625 35.1875 C4.355625 35.0946875 4.355625 35.0946875 0 35 C0 23.45 0 11.9 0 0 Z " fill="#A2A2A5" transform="translate(26,230)"/>
<path d="M0 0 C8.58 0 17.16 0 26 0 C26 1.98 26 3.96 26 6 C20.06 6 14.12 6 8 6 C8 8.31 8 10.62 8 13 C13.61 13 19.22 13 25 13 C25 14.98 25 16.96 25 19 C24.67 19 24.34 19 24 19 C24 17.35 24 15.7 24 14 C18.39 14 12.78 14 7 14 C6.67 12.68 6.34 11.36 6 10 C4.02 10.99 4.02 10.99 2 12 C1.67 19.26 1.34 26.52 1 34 C9.25 34 17.5 34 26 34 C26 34.33 26 34.66 26 35 C17.42 35 8.84 35 0 35 C0 23.45 0 11.9 0 0 Z " fill="#A3A3A7" transform="translate(158,230)"/>
<path d="M0 0 C2.31 0 4.62 0 7 0 C7 11.22 7 22.44 7 34 C4.69 34 2.38 34 0 34 C0 22.78 0 11.56 0 0 Z " fill="#959599" transform="translate(61,230)"/>
<path d="M0 0 C1.98 0 3.96 0 6 0 C6 11.22 6 22.44 6 34 C3.36 34 0.72 34 -2 34 C-3.5625 31.1875 -3.5625 31.1875 -5 28 C-4.505 26.515 -4.505 26.515 -4 25 C-2.68 25 -1.36 25 0 25 C0 16.75 0 8.5 0 0 Z " fill="#949497" transform="translate(382,230)"/>
<path d="M0 0 C1.34540051 2.69080102 0.71610898 4.13556407 0 7 C-0.33 7.66 -0.66 8.32 -1 9 C-1.99 9 -2.98 9 -4 9 C-4.33 10.32 -4.66 11.64 -5 13 C-15 13 -25 13 -35 13 C-30.31084423 9.10199072 -27.97693781 8.40521612 -22 8 C-24.97 7.67 -27.94 7.34 -31 7 C-30.67 6.01 -30.34 5.02 -30 4 C-30 4.66 -30 5.32 -30 6 C-20.76 6 -11.52 6 -2 6 C-1.34 4.02 -0.68 2.04 0 0 Z " fill="#FDF7F6" transform="translate(622,85)"/>
<path d="M0 0 C1.98 0 3.96 0 6 0 C6 3.3 6 6.6 6 10 C6.66 10.33 7.32 10.66 8 11 C7.01 11 6.02 11 5 11 C5 18.59 5 26.18 5 34 C3.35 34 1.7 34 0 34 C0 22.78 0 11.56 0 0 Z " fill="#929296" transform="translate(625,230)"/>
<path d="M0 0 C2.5 1.6875 2.5 1.6875 4.5 4.6875 C4.625 7.375 4.625 7.375 4.5 9.6875 C2.19 9.6875 -0.12 9.6875 -2.5 9.6875 C-2.83 8.6975 -3.16 7.7075 -3.5 6.6875 C-6.14 6.6875 -8.78 6.6875 -11.5 6.6875 C-11.5 8.3375 -11.5 9.9875 -11.5 11.6875 C-12.16 11.6875 -12.82 11.6875 -13.5 11.6875 C-14.16 10.0375 -14.82 8.3875 -15.5 6.6875 C-16.49 6.6875 -17.48 6.6875 -18.5 6.6875 C-18.83 8.6675 -19.16 10.6475 -19.5 12.6875 C-19.83 12.6875 -20.16 12.6875 -20.5 12.6875 C-20.80487805 4.76067073 -20.80487805 4.76067073 -18.5 1.6875 C-13.25417076 -2.90260058 -6.17854227 -2.31695335 0 0 Z " fill="#A5A4A9" transform="translate(315.5,230.3125)"/>
<path d="M0 0 C0.33 0 0.66 0 1 0 C1 11.22 1 22.44 1 34 C2.65 34 4.3 34 6 34 C5.99476318 33.30849854 5.98952637 32.61699707 5.98413086 31.90454102 C5.963425 28.79053648 5.95036037 25.67654639 5.9375 22.5625 C5.92912109 21.47388672 5.92074219 20.38527344 5.91210938 19.26367188 C5.90888672 18.22919922 5.90566406 17.19472656 5.90234375 16.12890625 C5.89710693 15.17056885 5.89187012 14.21223145 5.88647461 13.22485352 C6 11 6 11 7 10 C7.07205511 8.31391034 7.08386068 6.62499341 7.0625 4.9375 C7.04896484 3.55884766 7.04896484 3.55884766 7.03515625 2.15234375 C7.02355469 1.44207031 7.01195312 0.73179687 7 0 C9.82613703 3.44024219 12.39131533 6.95122977 14.8125 10.6875 C15.43769531 11.64011719 16.06289063 12.59273437 16.70703125 13.57421875 C17.13371094 14.37472656 17.56039062 15.17523438 18 16 C17 18 16 20 15 22 C12 21 12 21 8 14 C7.67 20.93 7.34 27.86 7 35 C4.69 35 2.38 35 0 35 C0 23.45 0 11.9 0 0 Z " fill="#A1A1A5" transform="translate(624,230)"/>
<path d="M0 0 C2 3 2 3 2.375 5.4375 C2.78756101 8.14323538 2.78756101 8.14323538 5 9.875 C7.69997685 12.7437254 7.70435636 15.15663267 8 19 C5.69 19 3.38 19 1 19 C0.01 16.36 -0.98 13.72 -2 11 C-8.93 10.505 -8.93 10.505 -16 10 C-15.67 8.35 -15.34 6.7 -15 5 C-13.741875 4.979375 -12.48375 4.95875 -11.1875 4.9375 C-10.47980469 4.92589844 -9.77210938 4.91429687 -9.04296875 4.90234375 C-7 5 -7 5 -4 6 C-3.67 4.35 -3.34 2.7 -3 1 C-2.67 1.66 -2.34 2.32 -2 3 C-1.34 3 -0.68 3 0 3 C0 2.01 0 1.02 0 0 Z " fill="#919295" transform="translate(520,246)"/>
<path d="M0 0 C8.25 0 16.5 0 25 0 C25 1.65 25 3.3 25 5 C19.06 5 13.12 5 7 5 C7 6.98 7 8.96 7 11 C6.67 10.34 6.34 9.68 6 9 C5.34 9 4.68 9 4 9 C4 11.31 4 13.62 4 16 C3.34 16.33 2.68 16.66 2 17 C0.47943501 13.95887002 0.6258839 10.71802203 0.4375 7.375 C0.293125 4.94125 0.14875 2.5075 0 0 Z " fill="#929294" transform="translate(592,230)"/>
<path d="M0 0 C5.26500337 -0.43155765 5.26500337 -0.43155765 8 0 C10.27901991 2.49267803 10.87835238 4.18901589 11.375 7.5 C10.91751047 10.54993022 9.73087422 12.47580843 8 15 C5.48916886 13.74458443 5.12874554 12.49936512 4 10 C3.60167969 10.95712891 3.60167969 10.95712891 3.1953125 11.93359375 C2.84210938 12.75988281 2.48890625 13.58617187 2.125 14.4375 C1.77695312 15.26121094 1.42890625 16.08492187 1.0703125 16.93359375 C0 19 0 19 -2 20 C-2.125 14.25 -2.125 14.25 -1 12 C-1.99 12.33 -2.98 12.66 -4 13 C-3.71517632 11.58194169 -3.42181856 10.16559621 -3.125 8.75 C-2.96257812 7.96109375 -2.80015625 7.1721875 -2.6328125 6.359375 C-2.00849925 4.03168856 -1.15161458 2.10968048 0 0 Z " fill="#95959A" transform="translate(507,230)"/>
<path d="M0 0 C2.64 0 5.28 0 8 0 C8 4.29 8 8.58 8 13 C12.29 13 16.58 13 21 13 C21 8.71 21 4.42 21 0 C21.33 0 21.66 0 22 0 C22 4.62 22 9.24 22 14 C17.05 14.33 12.1 14.66 7 15 C6.67 15.99 6.34 16.98 6 18 C5.01 18 4.02 18 3 18 C2.67 17.01 2.34 16.02 2 15 C1.67 21.27 1.34 27.54 1 34 C2.98 34 4.96 34 7 34 C7 34.33 7 34.66 7 35 C4.69 35 2.38 35 0 35 C0 23.45 0 11.9 0 0 Z " fill="#ACACAF" transform="translate(462,230)"/>
<path d="M0 0 C0.99 0 1.98 0 3 0 C3.33 0.66 3.66 1.32 4 2 C4.66 2 5.32 2 6 2 C6 10.91 6 19.82 6 29 C4.02 29 2.04 29 0 29 C0 19.43 0 9.86 0 0 Z " fill="#939295" transform="translate(571,235)"/>
<path d="M0 0 C1.65 0 3.3 0 5 0 C5 11.22 5 22.44 5 34 C3.35 34 1.7 34 0 34 C0 22.78 0 11.56 0 0 Z " fill="#929196" transform="translate(361,230)"/>
<path d="M0 0 C8.25 0 16.5 0 25 0 C25 1.65 25 3.3 25 5 C19.06 5 13.12 5 7 5 C7 6.98 7 8.96 7 11 C6.67 10.34 6.34 9.68 6 9 C5.34 9 4.68 9 4 9 C3.87625 9.639375 3.7525 10.27875 3.625 10.9375 C3.41875 11.618125 3.2125 12.29875 3 13 C2.01 13.495 2.01 13.495 1 14 C0.67 9.38 0.34 4.76 0 0 Z " fill="#919096" transform="translate(328,230)"/>
<path d="M0 0 C9.9 0 19.8 0 30 0 C30.495 1.485 30.495 1.485 31 3 C30.04504326 4.69287785 29.0409066 6.35857037 28 8 C27.65772583 9.33106622 27.32248257 10.66400079 27 12 C26.34 12.66 25.68 13.32 25 14 C24.83318891 17.08347826 24.83318891 17.08347826 25 20 C24.401875 20.20625 23.80375 20.4125 23.1875 20.625 C20.69948023 21.89971646 20.69948023 21.89971646 19.6875 25.0625 C19.130625 26.031875 18.57375 27.00125 18 28 C12.50934429 29.23521903 6.98213356 29.15128344 1.375 29.125 C0.12589844 29.13080078 0.12589844 29.13080078 -1.1484375 29.13671875 C-5.22905986 29.13022094 -9.01986352 29.02346367 -13 28 C-13 27.67 -13 27.34 -13 27 C-12.2251123 27.10062744 -11.45022461 27.20125488 -10.65185547 27.30493164 C-2.08551686 28.23134926 6.8029312 29.08123428 15 26 C22.32130426 19.21885706 25.17242112 10.06771664 29 1 C19.43 1 9.86 1 0 1 C0 0.67 0 0.34 0 0 Z " fill="#D8F5FB" transform="translate(622,32)"/>
<path d="M0 0 C2.62310988 1.74873992 4.12039942 2.9915656 5.625 5.75 C5.625 7.07 5.625 8.39 5.625 9.75 C2.25 9.9375 2.25 9.9375 -1.375 9.75 C-2.035 8.76 -2.695 7.77 -3.375 6.75 C-5.70657492 6.40458149 -8.04008361 6.07205743 -10.375 5.75 C-12.74923 4.2741273 -14.40005205 2.72494795 -16.375 0.75 C-11.00686868 -2.29841846 -5.71265964 -2.11579987 0 0 Z " fill="#A2A1A7" transform="translate(414.375,230.25)"/>
<path d="M0 0 C2.57966596 2.57966596 3.33609844 5.09307892 4.625 8.5 C5.07101562 9.6653125 5.51703125 10.830625 5.9765625 12.03125 C7 15 7 15 7 17 C6.01 16.67 5.02 16.34 4 16 C3.67 14.35 3.34 12.7 3 11 C1.68 10.67 0.36 10.34 -1 10 C-1.33 11.32 -1.66 12.64 -2 14 C-4.97 13.67 -7.94 13.34 -11 13 C-9.25892857 3.75892857 -9.25892857 3.75892857 -6 1 C-5.34 2.65 -4.68 4.3 -4 6 C-2.49440461 4.03617993 -1.10868317 2.21736634 0 0 Z " fill="#9C9DA1" transform="translate(518,238)"/>
<path d="M0 0 C0.33 0 0.66 0 1 0 C1 2.64 1 5.28 1 8 C7.6 8 14.2 8 21 8 C21 9.65 21 11.3 21 13 C12.75 13 4.5 13 -4 13 C-4 12.34 -4 11.68 -4 11 C-3.34 11 -2.68 11 -2 11 C-2 10.01 -2 9.02 -2 8 C-1.34 8 -0.68 8 0 8 C0 5.36 0 2.72 0 0 Z " fill="#919194" transform="translate(333,251)"/>
<path d="M0 0 C1.26328125 0.01804688 2.5265625 0.03609375 3.828125 0.0546875 C4.79234375 0.07789063 5.7565625 0.10109375 6.75 0.125 C6.75 2.105 6.75 4.085 6.75 6.125 C2.13 6.125 -2.49 6.125 -7.25 6.125 C-7.25 10.745 -7.25 15.365 -7.25 20.125 C-7.58 20.125 -7.91 20.125 -8.25 20.125 C-8.25 15.835 -8.25 11.545 -8.25 7.125 C-9.24 6.795 -10.23 6.465 -11.25 6.125 C-11.25 4.805 -11.25 3.485 -11.25 2.125 C-7.54583874 -0.25090142 -4.32015427 -0.08000286 0 0 Z " fill="#A0A0A2" transform="translate(547.25,243.875)"/>
<path d="M0 0 C9.57 0 19.14 0 29 0 C27.42345627 4.7296312 25.92685315 8.16544666 23.4375 12.375 C22.81746094 13.43460938 22.19742188 14.49421875 21.55859375 15.5859375 C21.04425781 16.38257812 20.52992188 17.17921875 20 18 C19.67 18 19.34 18 19 18 C19 16.35 19 14.7 19 13 C19.66 13 20.32 13 21 13 C21.309375 12.05125 21.61875 11.1025 21.9375 10.125 C23 7 23 7 24 5 C24.66 5 25.32 5 26 5 C26.33 3.68 26.66 2.36 27 1 C26.02933594 1.17402344 25.05867187 1.34804687 24.05859375 1.52734375 C19.67517823 2.15354597 15.46284565 1.89054633 11.0625 1.5625 C9.89364258 1.48418945 9.89364258 1.48418945 8.70117188 1.40429688 C6.80033228 1.27601936 4.90009096 1.13892679 3 1 C2.84144531 1.60328125 2.68289063 2.2065625 2.51953125 2.828125 C1.01536863 7.98050524 -0.15736637 11.14408786 -5 14 C-5.66 14 -6.32 14 -7 14 C-5.18640086 8.88894789 -2.73796594 4.92833869 0 0 Z " fill="#79B466" transform="translate(604,66)"/>
<path d="M0 0 C0.33 0.99 0.66 1.98 1 3 C0.34 3 -0.32 3 -1 3 C-0.67 4.65 -0.34 6.3 0 8 C0.66 8 1.32 8 2 8 C1.34 9.65 0.68 11.3 0 13 C-1.98 13 -3.96 13 -6 13 C-6 13.66 -6 14.32 -6 15 C1.92 15 9.84 15 18 15 C18.33 13.35 18.66 11.7 19 10 C20.0625 7.6875 20.0625 7.6875 21 6 C21.99 6.33 22.98 6.66 24 7 C22.35 9.97 20.7 12.94 19 16 C9.76 16 0.52 16 -9 16 C-7.7290827 12.1872481 -6.66918099 9.09374991 -4.875 5.625 C-4.34519531 4.59246094 -4.34519531 4.59246094 -3.8046875 3.5390625 C-3.53914062 3.03117187 -3.27359375 2.52328125 -3 2 C-2.01 2 -1.02 2 0 2 C0 1.34 0 0.68 0 0 Z " fill="#D5251B" transform="translate(583,108)"/>
<path d="M0 0 C1.23588867 0.0314209 2.47177734 0.0628418 3.74511719 0.09521484 C4.40533875 0.10370453 5.0655603 0.11219421 5.74578857 0.12094116 C7.84621272 0.15442384 9.94273765 0.22966713 12.04199219 0.30615234 C13.46901989 0.33625978 14.89610805 0.36363427 16.32324219 0.38818359 C19.81408392 0.45419017 23.30265729 0.55766409 26.79199219 0.68115234 C27.28699219 1.67115234 27.28699219 1.67115234 27.79199219 2.68115234 C18.22199219 2.68115234 8.65199219 2.68115234 -1.20800781 2.68115234 C-1.86800781 4.33115234 -2.52800781 5.98115234 -3.20800781 7.68115234 C-4.39145872 9.96505195 -5.60125404 12.23543709 -6.83300781 14.49365234 C-7.32027344 15.38987305 -7.32027344 15.38987305 -7.81738281 16.30419922 C-8.61179933 17.76452369 -9.40956157 19.22302726 -10.20800781 20.68115234 C-10.53800781 20.68115234 -10.86800781 20.68115234 -11.20800781 20.68115234 C-11.77342956 15.02693483 -10.02178406 11.40551741 -7.20800781 6.68115234 C-6.6653125 5.65940918 -6.12261719 4.63766602 -5.56347656 3.58496094 C-3.20800781 0.68115234 -3.20800781 0.68115234 0 0 Z " fill="#DCF5D5" transform="translate(605.2080078125,63.31884765625)"/>
<path d="M0 0 C0.93423645 3.01031744 1.04449911 3.86650268 0 7 C-0.12375 7.66 -0.2475 8.32 -0.375 9 C-1.11489024 11.36764876 -2.27260251 12.27260251 -4 14 C-4 14.99 -4 15.98 -4 17 C-3.37432129 17.01981934 -2.74864258 17.03963867 -2.10400391 17.06005859 C0.72276519 17.15514226 3.54877815 17.26488746 6.375 17.375 C7.35984375 17.4059375 8.3446875 17.436875 9.359375 17.46875 C10.77089844 17.52675781 10.77089844 17.52675781 12.2109375 17.5859375 C13.08024902 17.6173584 13.94956055 17.6487793 14.84521484 17.68115234 C17 18 17 18 19 20 C9.43 20 -0.14 20 -10 20 C-6.66666667 13.33333333 -3.33333333 6.66666667 0 0 Z " fill="#245E8E" transform="translate(618,39)"/>
<path d="M0 0 C3 1 3 1 4 2 C4.66 2 5.32 2 6 2 C6 5.3 6 8.6 6 12 C4.68 12 3.36 12 2 12 C2 12.99 2 13.98 2 15 C1.34 15 0.68 15 0 15 C0 15.66 0 16.32 0 17 C8.25 17 16.5 17 25 17 C25 17.33 25 17.66 25 18 C16.42 18 7.84 18 -1 18 C-1.020625 15.215625 -1.04125 12.43125 -1.0625 9.5625 C-1.071604 8.68408447 -1.08070801 7.80566895 -1.09008789 6.90063477 C-1.09723091 4.93354026 -1.05031893 2.96646379 -1 1 C-0.67 0.67 -0.34 0.34 0 0 Z " fill="#A2A1A6" transform="translate(329,247)"/>
<path d="M0 0 C1.18916016 0.01353516 1.18916016 0.01353516 2.40234375 0.02734375 C4.35169281 0.05082988 6.30088575 0.08669863 8.25 0.125 C8.25 1.775 8.25 3.425 8.25 5.125 C1.65 5.125 -4.95 5.125 -11.75 5.125 C-12.08 4.135 -12.41 3.145 -12.75 2.125 C-8.77389214 -0.58986934 -4.61098023 -0.09940753 0 0 Z " fill="#929195" transform="translate(92.75,258.875)"/>
<path d="M0 0 C0.91007812 0.00902344 1.82015625 0.01804688 2.7578125 0.02734375 C3.45648438 0.03894531 4.15515625 0.05054688 4.875 0.0625 C4.875 0.3925 4.875 0.7225 4.875 1.0625 C2.235 1.3925 -0.405 1.7225 -3.125 2.0625 C-3.455 3.3825 -3.785 4.7025 -4.125 6.0625 C-1.815 6.0625 0.495 6.0625 2.875 6.0625 C2.875 6.3925 2.875 6.7225 2.875 7.0625 C0.235 7.3925 -2.405 7.7225 -5.125 8.0625 C-5.228125 8.68125 -5.33125 9.3 -5.4375 9.9375 C-6.125 12.0625 -6.125 12.0625 -9.125 14.0625 C-10.115 14.5575 -10.115 14.5575 -11.125 15.0625 C-12.69435594 11.92378812 -12.47701103 9.52394178 -12.125 6.0625 C-8.24571451 1.36652282 -5.95568234 -0.0763549 0 0 Z " fill="#A1A1A3" transform="translate(275.125,228.9375)"/>
<path d="M0 0 C1.74965358 -0.05429959 3.49979787 -0.09292823 5.25 -0.125 C6.22453125 -0.14820313 7.1990625 -0.17140625 8.203125 -0.1953125 C11.08170091 0.00570537 12.61784582 0.40838371 15 2 C17.1519437 5.22791555 17.20086443 6.28400809 17 10 C15.02 10 13.04 10 11 10 C11 8.35 11 6.7 11 5 C10.34 5 9.68 5 9 5 C6.33333333 5 3.66666667 5 1 5 C0.67 3.35 0.34 1.7 0 0 Z " fill="#919193" transform="translate(303,230)"/>
<path d="M0 0 C0.886875 0.804375 1.77375 1.60875 2.6875 2.4375 C5.38287032 4.7039159 7.42063478 5.68417366 11 6 C10.34 7.32 9.68 8.64 9 10 C10.32 10.66 11.64 11.32 13 12 C7.21549928 12.34707004 3.03436469 12.27233705 -2 9 C-2.33 8.34 -2.66 7.68 -3 7 C-2.34 7 -1.68 7 -1 7 C-1 6.01 -1 5.02 -1 4 C-0.34 4 0.32 4 1 4 C0.67 2.68 0.34 1.36 0 0 Z " fill="#9D9CA1" transform="translate(232,253)"/>
<path d="M0 0 C5.28 0 10.56 0 16 0 C16 1.65 16 3.3 16 5 C14.06257659 5.02703381 12.12504521 5.04641125 10.1875 5.0625 C9.10855469 5.07410156 8.02960938 5.08570313 6.91796875 5.09765625 C4 5 4 5 1 4 C0.67 2.68 0.34 1.36 0 0 Z " fill="#949495" transform="translate(83,244)"/>
<path d="M0 0 C0.66 0.33 1.32 0.66 2 1 C1.5020163 4.73487777 1.12508244 6.81237635 -1 10 C-3.43017578 10.2487793 -3.43017578 10.2487793 -6.4453125 10.07421875 C-7.52167969 10.01943359 -8.59804688 9.96464844 -9.70703125 9.90820312 C-10.83496094 9.83537109 -11.96289062 9.76253906 -13.125 9.6875 C-14.26066406 9.62626953 -15.39632812 9.56503906 -16.56640625 9.50195312 C-19.37866961 9.3483421 -22.18935144 9.18044528 -25 9 C-25 8.67 -25 8.34 -25 8 C-18.73 8 -12.46 8 -6 8 C-5.67 6.68 -5.34 5.36 -5 4 C-3 1 -3 1 0 0 Z " fill="#0B5FA2" transform="translate(639,48)"/>
<path d="M0 0 C2.89659753 0.32184417 5.31897331 0.61408488 7.875 2.0625 C9.73193849 5.26056073 9.17925295 8.35518997 9 12 C5.25 13.125 5.25 13.125 3 12 C3 9.03 3 6.06 3 3 C2.01 3.495 2.01 3.495 1 4 C0.34 3.34 -0.32 2.68 -1 2 C-0.67 1.34 -0.34 0.68 0 0 Z " fill="#949396" transform="translate(280,245)"/>
<path d="M0 0 C1.65 0 3.3 0 5 0 C5 1.98 5 3.96 5 6 C-2.92 6 -10.84 6 -19 6 C-19 5.34 -19 4.68 -19 4 C-13.06 3.67 -7.12 3.34 -1 3 C-0.67 2.01 -0.34 1.02 0 0 Z " fill="#DD241D" transform="translate(596,117)"/>
<path d="M0 0 C3 1 3 1 4.1875 3.3125 C5 6 5 6 5 10 C2.69 10 0.38 10 -2 10 C-2.66 7.69 -3.32 5.38 -4 3 C-2.1875 1.4375 -2.1875 1.4375 0 0 Z " fill="#9D9CA1" transform="translate(523,255)"/>
<path d="M0 0 C5.28 0 10.56 0 16 0 C16 1.32 16 2.64 16 4 C10.39 4 4.78 4 -1 4 C-0.67 2.68 -0.34 1.36 0 0 Z " fill="#919291" transform="translate(600,244)"/>
<path d="M0 0 C1.32 0.99 2.64 1.98 4 3 C3.67447917 5.01822917 3.34895833 7.03645833 3.0234375 9.0546875 C3.01570312 9.69664062 3.00796875 10.33859375 3 11 C3.66 11.66 4.32 12.32 5 13 C5.99 12.34 6.98 11.68 8 11 C8 12.98 8 14.96 8 17 C7.34 16.67 6.68 16.34 6 16 C5.01 17.98 4.02 19.96 3 22 C2.34 21.01 1.68 20.02 1 19 C0.34 19 -0.32 19 -1 19 C-1 18.34 -1 17.68 -1 17 C-0.34 17 0.32 17 1 17 C0.85833643 15.08302063 0.71150416 13.16642277 0.5625 11.25 C0.48128906 10.18265625 0.40007812 9.1153125 0.31640625 8.015625 C0.08385541 5.09107621 0.08385541 5.09107621 -0.59765625 2.671875 C-0.73042969 2.12015625 -0.86320313 1.5684375 -1 1 C-0.67 0.67 -0.34 0.34 0 0 Z " fill="#99989E" transform="translate(249,237)"/>
<path d="M0 0 C0.84755859 0.00966797 1.69511719 0.01933594 2.56835938 0.02929688 C3.44943359 0.05443359 4.33050781 0.07957031 5.23828125 0.10546875 C6.13095703 0.11900391 7.02363281 0.13253906 7.94335938 0.14648438 C10.14644291 0.18182796 12.34830707 0.23116382 14.55078125 0.29296875 C13.89078125 1.94296875 13.23078125 3.59296875 12.55078125 5.29296875 C11.89078125 4.96296875 11.23078125 4.63296875 10.55078125 4.29296875 C9.17731775 4.14291902 7.79792865 4.04458869 6.41796875 3.9765625 C5.61230469 3.93466797 4.80664062 3.89277344 3.9765625 3.84960938 C3.13480469 3.81029297 2.29304687 3.77097656 1.42578125 3.73046875 C0.57628906 3.68728516 -0.27320313 3.64410156 -1.1484375 3.59960938 C-3.24850098 3.49342639 -5.34883823 3.39268378 -7.44921875 3.29296875 C-5.08036651 0.42052834 -3.69085058 -0.07431243 0 0 Z " fill="#D72A0F" transform="translate(597.44921875,99.70703125)"/>
<path d="M0 0 C2.74623299 0.2746233 3.81496987 0.80836165 5.75 2.8125 C7 5 7 5 7 9 C4.69 9 2.38 9 0 9 C-0.12375 8.071875 -0.12375 8.071875 -0.25 7.125 C-0.81258459 4.81562433 -0.81258459 4.81562433 -3.0625 3.75 C-3.701875 3.5025 -4.34125 3.255 -5 3 C-4.360625 2.690625 -3.72125 2.38125 -3.0625 2.0625 C-1.06389179 1.1654837 -1.06389179 1.1654837 0 0 Z " fill="#9D9D9F" transform="translate(413,231)"/>
<path d="M0 0 C0.99 0 1.98 0 3 0 C1.8741386 3.53842155 0.66905241 6.66189518 -1 10 C8.24 10 17.48 10 27 10 C27 10.33 27 10.66 27 11 C22.74585377 11.02465622 18.49174502 11.04283899 14.23754883 11.05493164 C12.78929927 11.05997101 11.34105483 11.06680253 9.89282227 11.07543945 C7.81525412 11.08752247 5.73775303 11.09323211 3.66015625 11.09765625 C2.40855713 11.10289307 1.15695801 11.10812988 -0.13256836 11.11352539 C-3 11 -3 11 -4 10 C-4.04063832 8.33382885 -4.042721 6.66611905 -4 5 C-2.68 4.67 -1.36 4.34 0 4 C0 2.68 0 1.36 0 0 Z " fill="#F4CBC3" transform="translate(575,114)"/>
<path d="M0 0 C9.9 0 19.8 0 30 0 C30.33 0.99 30.66 1.98 31 3 C30.04504326 4.69287785 29.0409066 6.35857037 28 8 C27.855625 8.680625 27.71125 9.36125 27.5625 10.0625 C26.76944697 12.79412711 25.07410705 14.12661299 23 16 C23.49212323 9.60239804 25.48502476 7.32695544 29 1 C19.43 1 9.86 1 0 1 C0 0.67 0 0.34 0 0 Z " fill="#C2E4FB" transform="translate(622,32)"/>
<path d="M0 0 C2.42130331 2.42130331 2.52840504 3.80111377 3.125 7.125 C3.29257812 8.03507813 3.46015625 8.94515625 3.6328125 9.8828125 C3.81457031 10.93082031 3.81457031 10.93082031 4 12 C1.36 12 -1.28 12 -4 12 C-3.71640113 10.5608866 -3.42278601 9.12374482 -3.125 7.6875 C-2.96257812 6.88699219 -2.80015625 6.08648437 -2.6328125 5.26171875 C-2 3 -2 3 0 0 Z " fill="#EEEFF0" transform="translate(511,239)"/>
<path d="M0 0 C1.34540051 2.69080102 0.71610898 4.13556407 0 7 C-0.33 7.66 -0.66 8.32 -1 9 C-10.9 8.34 -20.8 7.68 -31 7 C-30.67 6.01 -30.34 5.02 -30 4 C-30 4.66 -30 5.32 -30 6 C-20.76 6 -11.52 6 -2 6 C-1.34 4.02 -0.68 2.04 0 0 Z " fill="#CBE9BC" transform="translate(622,85)"/>
<path d="M0 0 C0.33 0 0.66 0 1 0 C1 8.25 1 16.5 1 25 C-0.98 25.66 -2.96 26.32 -5 27 C-6.0625 24.625 -6.0625 24.625 -7 22 C-6.67 21.34 -6.34 20.68 -6 20 C-4.35 20 -2.7 20 -1 20 C-0.67 13.4 -0.34 6.8 0 0 Z " fill="#A6A7A9" transform="translate(381,230)"/>
<path d="M0 0 C0.99 0.66 1.98 1.32 3 2 C0.36 6.95 -2.28 11.9 -5 17 C-7 14 -7 14 -6.8125 11.6875 C-5.85874011 8.53275576 -4.67755039 5.83893143 -3 3 C-2.01 2.67 -1.02 2.34 0 2 C0 1.34 0 0.68 0 0 Z " fill="#FAF6EB" transform="translate(584,97)"/>
<path d="M0 0 C2.97 0 5.94 0 9 0 C7.62394084 4.76551013 5.53221934 8.7248553 2.875 12.875 C2.50246094 13.46796875 2.12992188 14.0609375 1.74609375 14.671875 C0.83635 16.1181343 -0.08103798 17.55958046 -1 19 C-2.2077558 15.37673261 -1.54311128 14.35853631 0 11 C0.66 11 1.32 11 2 11 C2.144375 10.4225 2.28875 9.845 2.4375 9.25 C2.95833333 7.16666667 3.47916667 5.08333333 4 3 C2.68 2.01 1.36 1.02 0 0 Z " fill="#1F5D91" transform="translate(642,33)"/>
<path d="M0 0 C4.95 0 9.9 0 15 0 C15 0.99 15 1.98 15 3 C10.05 3 5.1 3 0 3 C0 4.32 0 5.64 0 7 C-0.66 7 -1.32 7 -2 7 C-1.125 2.25 -1.125 2.25 0 0 Z " fill="#DF241F" transform="translate(592,103)"/>
<path d="M0 0 C3.35498935 1.38827146 5.15050455 2.85585774 7 6 C7 7.32 7 8.64 7 10 C4.69 10 2.38 10 0 10 C-1.11170388 6.66488837 -0.82428809 4.38873993 0 1 C0 0.67 0 0.34 0 0 Z " fill="#98989A" transform="translate(281,230)"/>
<path d="M0 0 C0.99 0.33 1.98 0.66 3 1 C1.35 3.97 -0.3 6.94 -2 10 C-11.24 10 -20.48 10 -30 10 C-29.34 8.68 -28.68 7.36 -28 6 C-28 6.99 -28 7.98 -28 9 C-19.75 9 -11.5 9 -3 9 C-2.67 7.35 -2.34 5.7 -2 4 C-0.9375 1.6875 -0.9375 1.6875 0 0 Z " fill="#B12A28" transform="translate(604,114)"/>
<path d="M0 0 C1.231394 3.69418201 0.64432764 6.2056261 0 10 C1.98 10 3.96 10 6 10 C5.34 11.65 4.68 13.3 4 15 C3.67 14.34 3.34 13.68 3 13 C1.35 13 -0.3 13 -2 13 C-2.33 12.01 -2.66 11.02 -3 10 C-2.34 10 -1.68 10 -1 10 C-1 8.35 -1 6.7 -1 5 C-3.64 4.34 -6.28 3.68 -9 3 C-6.94112395 2.48528099 -4.88138455 1.9728879 -2.8125 1.5 C-0.99436859 1.15890376 -0.99436859 1.15890376 0 0 Z " fill="#9D9CA1" transform="translate(283,247)"/>
<path d="M0 0 C1.32 0.66 2.64 1.32 4 2 C3.67 4.31 3.34 6.62 3 9 C-0.875 7.125 -0.875 7.125 -2 6 C-3.84891946 5.76636119 -5.70488031 5.58696365 -7.5625 5.4375 C-8.57441406 5.35371094 -9.58632813 5.26992187 -10.62890625 5.18359375 C-11.80259766 5.09271484 -11.80259766 5.09271484 -13 5 C-13 4.67 -13 4.34 -13 4 C-12.39671875 3.96261719 -11.7934375 3.92523438 -11.171875 3.88671875 C-5.00632228 3.43746659 -5.00632228 3.43746659 0 0 Z " fill="#969698" transform="translate(46,231)"/>
<path d="M0 0 C3.3 0 6.6 0 10 0 C10 1.32 10 2.64 10 4 C8.37548581 4.33569297 6.75037083 4.6684796 5.125 5 C4.22007812 5.185625 3.31515625 5.37125 2.3828125 5.5625 C0 6 0 6 -2 6 C-2 5.34 -2 4.68 -2 4 C-1.01 3.34 -0.02 2.68 1 2 C0.67 1.34 0.34 0.68 0 0 Z " fill="#908F96" transform="translate(438,230)"/>
<path d="M0 0 C6.75 -0.125 6.75 -0.125 9 1 C9 2.65 9 4.3 9 6 C7.02 6.99 7.02 6.99 5 8 C5 7.01 5 6.02 5 5 C3.7934375 4.814375 3.7934375 4.814375 2.5625 4.625 C1.716875 4.41875 0.87125 4.2125 0 4 C-0.33 3.34 -0.66 2.68 -1 2 C-0.67 1.34 -0.34 0.68 0 0 Z M5 3 C5 3.66 5 4.32 5 5 C5.66 5 6.32 5 7 5 C7 4.34 7 3.68 7 3 C6.34 3 5.68 3 5 3 Z " fill="#929295" transform="translate(309,245)"/>
<path d="M0 0 C2.2477975 2.05233685 3.0022242 3.00667261 4 6 C4.06937062 8.22818441 4.08457084 10.45834524 4.0625 12.6875 C4.05347656 13.86699219 4.04445313 15.04648438 4.03515625 16.26171875 C4.02355469 17.16535156 4.01195312 18.06898438 4 19 C3.01 18.67 2.02 18.34 1 18 C1 14.04 1 10.08 1 6 C0.34 6 -0.32 6 -1 6 C-1 5.34 -1 4.68 -1 4 C-0.34 4 0.32 4 1 4 C0.67 2.68 0.34 1.36 0 0 Z " fill="#9C9D9F" transform="translate(51,234)"/>
<path d="M0 0 C1.98 0.66 3.96 1.32 6 2 C5.67 4.31 5.34 6.62 5 9 C4.01 8.34 3.02 7.68 2 7 C2 7.99 2 8.98 2 10 C1.01 10 0.02 10 -1 10 C-1.02689216 8.52093108 -1.04634621 7.04172517 -1.0625 5.5625 C-1.07410156 4.73878906 -1.08570313 3.91507813 -1.09765625 3.06640625 C-1 1 -1 1 0 0 Z " fill="#929195" transform="translate(415,249)"/>
<path d="M0 0 C0.99 0.33 1.98 0.66 3 1 C1.71520038 3.48294996 0.4226131 5.96125909 -0.875 8.4375 C-1.42220703 9.49807617 -1.42220703 9.49807617 -1.98046875 10.58007812 C-4.7734375 15.88671875 -4.7734375 15.88671875 -7 17 C-7.37951425 12.5750253 -6.25296408 10.06398452 -4.0625 6.25 C-3.51722656 5.28578125 -2.97195313 4.3215625 -2.41015625 3.328125 C-1 1 -1 1 0 0 Z " fill="#DEF5FB" transform="translate(615,40)"/>
<path d="M0 0 C3.63 0 7.26 0 11 0 C11 0.33 11 0.66 11 1 C7.92382812 1.29296875 7.92382812 1.29296875 4.84765625 1.5859375 C4.23792969 1.72257813 3.62820312 1.85921875 3 2 C2.67 2.66 2.34 3.32 2 4 C1.34 4 0.68 4 0 4 C0 4.99 0 5.98 0 7 C0.66 7.33 1.32 7.66 2 8 C1.01 8.33 0.02 8.66 -1 9 C-2.65 7.35 -4.3 5.7 -6 4 C-4.02 3.34 -2.04 2.68 0 2 C0 1.34 0 0.68 0 0 Z " fill="#A6A6AA" transform="translate(130,229)"/>
<path d="M0 0 C4.92127034 -0.16682272 8.50343896 -0.24828052 13 2 C12.01 2.33 11.02 2.66 10 3 C10 3.66 10 4.32 10 5 C10.66 5 11.32 5 12 5 C11.67 5.66 11.34 6.32 11 7 C11 7.66 11 8.32 11 9 C7.7 8.34 4.4 7.68 1 7 C1 6.67 1 6.34 1 6 C2.98 5.67 4.96 5.34 7 5 C6.67 4.34 6.34 3.68 6 3 C6.33 2.34 6.66 1.68 7 1 C4.69 1 2.38 1 0 1 C0 0.67 0 0.34 0 0 Z " fill="#AAAAAC" transform="translate(237,229)"/>
<path d="M0 0 C2 4 2 4 1.4375 6.375 C-0.36251719 9.66198791 -2.51863496 12.19213956 -5 15 C-5.66 14.67 -6.32 14.34 -7 14 C-4.69 9.38 -2.38 4.76 0 0 Z " fill="#F0FCE8" transform="translate(633,65)"/>
<path d="M0 0 C0.66 0 1.32 0 2 0 C2.33 1.32 2.66 2.64 3 4 C2.34 4 1.68 4 1 4 C1 4.66 1 5.32 1 6 C1.66 6 2.32 6 3 6 C3.1875 9.375 3.1875 9.375 3 13 C2.01 13.66 1.02 14.32 0 15 C-0.75612577 9.76528314 -1.2063366 5.22745859 0 0 Z " fill="#909193" transform="translate(49,234)"/>
<path d="M0 0 C3 1 3 1 5 4 C5.125 6.6875 5.125 6.6875 5 9 C3.02 9 1.04 9 -1 9 C-1 8.01 -1 7.02 -1 6 C-0.34 6 0.32 6 1 6 C0.67 4.02 0.34 2.04 0 0 Z " fill="#979799" transform="translate(315,231)"/>
<path d="M0 0 C1.87558594 0.00966797 1.87558594 0.00966797 3.7890625 0.01953125 C5.09101562 0.03628906 6.39296875 0.05304688 7.734375 0.0703125 C9.05179688 0.07933594 10.36921875 0.08835937 11.7265625 0.09765625 C14.97934962 0.12122717 18.23177089 0.15413228 21.484375 0.1953125 C21.484375 0.5253125 21.484375 0.8553125 21.484375 1.1953125 C20.36409912 1.23289673 20.36409912 1.23289673 19.22119141 1.27124023 C15.85040233 1.38699463 12.47990717 1.50981378 9.109375 1.6328125 C7.93375 1.67212891 6.758125 1.71144531 5.546875 1.75195312 C4.42539062 1.79384766 3.30390625 1.83574219 2.1484375 1.87890625 C0.59310303 1.93389282 0.59310303 1.93389282 -0.99365234 1.98999023 C-3.50987666 2.03695473 -3.50987666 2.03695473 -5.515625 3.1953125 C-7.19217229 2.91588795 -8.86170654 2.58703003 -10.515625 2.1953125 C-6.97418975 -0.00098533 -4.11895253 -0.03744502 0 0 Z " fill="#FCF8EC" transform="translate(579.515625,124.8046875)"/>
<path d="M0 0 C0.93423645 3.01031744 1.04449911 3.86650268 0 7 C-0.12375 7.66 -0.2475 8.32 -0.375 9 C-1.11138184 11.35642189 -2.15846229 12.39866286 -4 14 C-4.66 13.67 -5.32 13.34 -6 13 C-4.58707905 8.1725201 -2.57025846 4.2837641 0 0 Z " fill="#1F6398" transform="translate(618,39)"/>
<path d="M0 0 C0 1.32 0 2.64 0 4 C-1.98 4.99 -1.98 4.99 -4 6 C-5.65 4.02 -7.3 2.04 -9 0 C-5.62182575 -0.84454356 -3.32534757 -1.10844919 0 0 Z " fill="#9A9A9F" transform="translate(407,153)"/>
<path d="M0 0 C-0.33 1.32 -0.66 2.64 -1 4 C-3.97 4 -6.94 4 -10 4 C-9.01 3.67 -8.02 3.34 -7 3 C-7 2.34 -7 1.68 -7 1 C-7.66 0.67 -8.32 0.34 -9 0 C-5.67465243 -1.10844919 -3.37817425 -0.84454356 0 0 Z " fill="#8F8E93" transform="translate(248,260)"/>
<path d="M0 0 C0.33 0.99 0.66 1.98 1 3 C0.67 3.66 0.34 4.32 0 5 C-7.92 4.67 -15.84 4.34 -24 4 C-24 3.67 -24 3.34 -24 3 C-23.01604248 2.970271 -23.01604248 2.970271 -22.01220703 2.93994141 C-19.04938931 2.84487493 -16.08729468 2.73512248 -13.125 2.625 C-11.57619141 2.57859375 -11.57619141 2.57859375 -9.99609375 2.53125 C-8.51689453 2.47324219 -8.51689453 2.47324219 -7.0078125 2.4140625 C-5.64100342 2.36693115 -5.64100342 2.36693115 -4.24658203 2.31884766 C-1.80068814 2.20117489 -1.80068814 2.20117489 0 0 Z " fill="#0A5593" transform="translate(638,53)"/>
<path d="M0 0 C0 3 0 3 -1 6 C1.51083114 4.74458443 1.87125446 3.49936512 3 1 C3.66 1.33 4.32 1.66 5 2 C4.75 3.875 4.75 3.875 4 6 C2.1875 7.3125 2.1875 7.3125 0 8 C-2.25 7.625 -2.25 7.625 -4 7 C-4 5.68 -4 4.36 -4 3 C-2 1.25 -2 1.25 0 0 Z " fill="#9D9CA0" transform="translate(46,256)"/>
<path d="M0 0 C0.66 0.33 1.32 0.66 2 1 C-0.97 6.28 -3.94 11.56 -7 17 C-7.33 17 -7.66 17 -8 17 C-8 15.35 -8 13.7 -8 12 C-7.34 12 -6.68 12 -6 12 C-5.690625 11.05125 -5.38125 10.1025 -5.0625 9.125 C-4 6 -4 6 -3 4 C-2.34 4 -1.68 4 -1 4 C-0.67 2.68 -0.34 1.36 0 0 Z " fill="#85BD77" transform="translate(631,67)"/>
<path d="M0 0 C2.9375 0.8125 2.9375 0.8125 6 2 C6.33 2.99 6.66 3.98 7 5 C6.34 5 5.68 5 5 5 C5 4.34 5 3.68 5 3 C-1.6 3 -8.2 3 -15 3 C-15 2.67 -15 2.34 -15 2 C-14.00097656 1.93941406 -13.00195312 1.87882812 -11.97265625 1.81640625 C-10.68230469 1.73261719 -9.39195312 1.64882813 -8.0625 1.5625 C-6.77472656 1.48128906 -5.48695313 1.40007813 -4.16015625 1.31640625 C-1.13976043 1.35080812 -1.13976043 1.35080812 0 0 Z " fill="#065699" transform="translate(640,33)"/>
<path d="M0 0 C1.85772162 0.08984301 3.71247985 0.24611861 5.5625 0.4375 C7.08037109 0.59025391 7.08037109 0.59025391 8.62890625 0.74609375 C9.80259766 0.87177734 9.80259766 0.87177734 11 1 C11 1.33 11 1.66 11 2 C6.545 2.495 6.545 2.495 2 3 C4.97 3.33 7.94 3.66 11 4 C11 4.33 11 4.66 11 5 C7.04 5 3.08 5 -1 5 C-1 1 -1 1 0 0 Z " fill="#8E8E8F" transform="translate(542,244)"/>
<path d="M0 0 C0.66 0.33 1.32 0.66 2 1 C-0.31 5.29 -2.62 9.58 -5 14 C-5.33 14 -5.66 14 -6 14 C-6.3227506 9.37390802 -5.84450614 6.71973879 -3 3 C-2.34 3 -1.68 3 -1 3 C-0.67 2.01 -0.34 1.02 0 0 Z " fill="#EAFCE2" transform="translate(600,70)"/>
<path d="M0 0 C0.66 0.66 1.32 1.32 2 2 C1.67028521 5.29714793 1.3773161 6.6226839 -1 9 C-1.45811675 10.97235333 -1.45811675 10.97235333 -1.625 13.125 C-1.74875 14.40375 -1.8725 15.6825 -2 17 C-2.33 17 -2.66 17 -3 17 C-3.3540919 10.48208608 -3.03901852 5.82478551 0 0 Z " fill="#A1A1A3" transform="translate(122,235)"/>
<path d="M0 0 C0.99 0.33 1.98 0.66 3 1 C3.33 2.65 3.66 4.3 4 6 C1.69 6.33 -0.62 6.66 -3 7 C-3 6.34 -3 5.68 -3 5 C-2.34 5 -1.68 5 -1 5 C-0.67 3.35 -0.34 1.7 0 0 Z " fill="#9F9FA1" transform="translate(452,234)"/>
<path d="M0 0 C2.97 0 5.94 0 9 0 C5.4912812 3.09592835 2.50802601 4.74194623 -2 6 C-2 3 -2 3 0 1 C0 0.67 0 0.34 0 0 Z " fill="#908F96" transform="translate(132,230)"/>
<path d="M0 0 C1.4540625 0.0309375 1.4540625 0.0309375 2.9375 0.0625 C3.9275 2.0425 4.9175 4.0225 5.9375 6.0625 C5.339375 5.876875 4.74125 5.69125 4.125 5.5 C1.77341238 4.84156313 1.77341238 4.84156313 -1.0625 6.0625 C-0.4025 4.4125 0.2575 2.7625 0.9375 1.0625 C-0.0525 1.0625 -1.0425 1.0625 -2.0625 1.0625 C-2.3925 2.3825 -2.7225 3.7025 -3.0625 5.0625 C-3.625 3.125 -3.625 3.125 -4.0625 1.0625 C-3.0625 0.0625 -3.0625 0.0625 0 0 Z " fill="#ADADB1" transform="translate(397.0625,251.9375)"/>
<path d="M0 0 C0 3 0 6 0 9 C0.99 8.34 1.98 7.68 3 7 C3 9.64 3 12.28 3 15 C1 15 1 15 -0.625 13.5625 C-2.61481538 9.8542077 -2.61495016 6.13693745 -2 2 C-1.34 1.34 -0.68 0.68 0 0 Z " fill="#A3A2A8" transform="translate(397,232)"/>
<path d="M0 0 C2.64 0 5.28 0 8 0 C8.33 1.65 8.66 3.3 9 5 C5.625 4.75 5.625 4.75 2 4 C0.5625 1.9375 0.5625 1.9375 0 0 Z " fill="#8F8F91" transform="translate(236,230)"/>
<path d="M0 0 C0.33 0 0.66 0 1 0 C1.09942995 3.48004838 1.16113293 6.69523705 0 10 C-2.5625 11.3125 -2.5625 11.3125 -5 12 C-4.42365861 7.24518354 -2.44931479 4.02951788 0 0 Z " fill="#FCE5DD" transform="translate(607,113)"/>
<path d="M0 0 C1.42944945 2.35438733 2.08661261 3.48032433 1.625 6.25 C1.41875 6.8275 1.2125 7.405 1 8 C0.34 7.67 -0.32 7.34 -1 7 C-1.99 8.485 -1.99 8.485 -3 10 C-3.66 10 -4.32 10 -5 10 C-4.38545304 6.00544473 -2.29353263 3.25533664 0 0 Z " fill="#8F8F92" transform="translate(50,252)"/>
<path d="M0 0 C0.33 0 0.66 0 1 0 C0.07021792 8.05811138 0.07021792 8.05811138 -2 11 C-4.125 12.25 -4.125 12.25 -6 13 C-4.58707905 8.1725201 -2.57025846 4.2837641 0 0 Z " fill="#FADBD5" transform="translate(615,98)"/>
<path d="M0 0 C1.76462683 3.08809695 2 4.23312136 2 8 C-0.31 8 -2.62 8 -5 8 C-4.34 6.68 -3.68 5.36 -3 4 C-2.34 4 -1.68 4 -1 4 C-0.67 2.68 -0.34 1.36 0 0 Z " fill="#8F8F91" transform="translate(500,256)"/>
<path d="M0 0 C1.32 1.32 2.64 2.64 4 4 C3.67 4.66 3.34 5.32 3 6 C2.01 5.67 1.02 5.34 0 5 C-0.33 6.32 -0.66 7.64 -1 9 C-1.66 8.67 -2.32 8.34 -3 8 C-3 6.02 -3 4.04 -3 2 C-2.34 2 -1.68 2 -1 2 C-0.67 1.34 -0.34 0.68 0 0 Z " fill="#9FA0A5" transform="translate(203,240)"/>
<path d="M0 0 C0.94875 0.04125 1.8975 0.0825 2.875 0.125 C2.545 1.115 2.215 2.105 1.875 3.125 C-1.5625 4.75 -1.5625 4.75 -5.125 6.125 C-6.115 6.62 -6.115 6.62 -7.125 7.125 C-4.56730769 0.18269231 -4.56730769 0.18269231 0 0 Z " fill="#E7E7E7" transform="translate(441.125,234.875)"/>
<path d="M0 0 C0.66 0.99 1.32 1.98 2 3 C0.98819642 6.77126791 0.32378142 7.78414572 -3 10 C-3 8.02 -3 6.04 -3 4 C-2.34 4 -1.68 4 -1 4 C-0.67 2.68 -0.34 1.36 0 0 Z " fill="#E4221B" transform="translate(585,107)"/>
<path d="M0 0 C0.99 0.33 1.98 0.66 3 1 C2.67 2.32 2.34 3.64 2 5 C2.66 5 3.32 5 4 5 C3.34 6.65 2.68 8.3 2 10 C1.34 10 0.68 10 0 10 C-1.11170388 6.66488837 -0.82428809 4.38873993 0 1 C0 0.67 0 0.34 0 0 Z " fill="#9E9EA0" transform="translate(281,230)"/>
<path d="M0 0 C0.66 0.33 1.32 0.66 2 1 C0.6875 3.5625 0.6875 3.5625 -2 6 C-5.74668659 6.15094565 -9.31348178 5.64196266 -13 5 C-13 4.67 -13 4.34 -13 4 C-12.39671875 3.96261719 -11.7934375 3.92523438 -11.171875 3.88671875 C-5.00632228 3.43746659 -5.00632228 3.43746659 0 0 Z " fill="#A6A5AB" transform="translate(46,231)"/>
<path d="M0 0 C0.66 1.32 1.32 2.64 2 4 C1.34 4.66 0.68 5.32 0 6 C-0.70710678 7.64991582 -1.37943989 9.31562256 -2 11 C-2.66 11 -3.32 11 -4 11 C-3.39301257 6.87248551 -1.96189209 3.6678852 0 0 Z " fill="#7FB76D" transform="translate(596,80)"/>
<path d="M0 0 C0.99 0.33 1.98 0.66 3 1 C3.33 2.98 3.66 4.96 4 7 C3.01 7.33 2.02 7.66 1 8 C1 7.34 1 6.68 1 6 C0.01 5.67 -0.98 5.34 -2 5 C-1.34 3.35 -0.68 1.7 0 0 Z " fill="#A2A2A5" transform="translate(318,247)"/>
<path d="M0 0 C1.15941038 3.47823115 0.70820884 5.45895578 0 9 C-0.33 7.68 -0.66 6.36 -1 5 C-3.64 4.34 -6.28 3.68 -9 3 C-6.94112395 2.48528099 -4.88138455 1.9728879 -2.8125 1.5 C-0.99436859 1.15890376 -0.99436859 1.15890376 0 0 Z " fill="#A4A4A7" transform="translate(283,247)"/>
<path d="M0 0 C0.66 0 1.32 0 2 0 C2.33 3.96 2.66 7.92 3 12 C0 9 0 9 -0.29296875 6.73828125 C-0.25816406 5.93777344 -0.22335938 5.13726562 -0.1875 4.3125 C-0.16042969 3.50425781 -0.13335937 2.69601563 -0.10546875 1.86328125 C-0.07066406 1.24839844 -0.03585938 0.63351563 0 0 Z " fill="#9D9CA2" transform="translate(224,243)"/>
<path d="M0 0 C2.31 0.66 4.62 1.32 7 2 C6.0409375 2.6496875 6.0409375 2.6496875 5.0625 3.3125 C2.73253997 4.91239177 2.73253997 4.91239177 2 8 C1.01 8 0.02 8 -1 8 C-0.67 7.360625 -0.34 6.72125 0 6.0625 C1.07271225 4.23205433 1.07271225 4.23205433 1 3 C0.34 2.67 -0.32 2.34 -1 2 C-0.67 1.34 -0.34 0.68 0 0 Z " fill="#A0A0A2" transform="translate(403,241)"/>
<path d="M0 0 C1.32 0.99 2.64 1.98 4 3 C3.7834375 3.7734375 3.7834375 3.7734375 3.5625 4.5625 C2.84190099 7.68509571 2.42733561 10.82550692 2 14 C1.67 14 1.34 14 1 14 C0.63906896 11.85529407 0.28642411 9.70919203 -0.0625 7.5625 C-0.25972656 6.36753906 -0.45695313 5.17257813 -0.66015625 3.94140625 C-0.77230469 2.97074219 -0.88445312 2.00007812 -1 1 C-0.67 0.67 -0.34 0.34 0 0 Z " fill="#A4A3A7" transform="translate(249,237)"/>
<path d="M0 0 C2.475 0.99 2.475 0.99 5 2 C4.34 3.65 3.68 5.3 3 7 C2.67 6.34 2.34 5.68 2 5 C1.34 5 0.68 5 0 5 C-0.5625 3.0625 -0.5625 3.0625 -1 1 C-0.67 0.67 -0.34 0.34 0 0 Z " fill="#909090" transform="translate(124,234)"/>
<path d="M0 0 C0.99 0.66 1.98 1.32 3 2 C1.68 4.31 0.36 6.62 -1 9 C-1.66 8.67 -2.32 8.34 -3 8 C-3 6.68 -3 5.36 -3 4 C-2.01 3.34 -1.02 2.68 0 2 C0 1.34 0 0.68 0 0 Z " fill="#FDE9D9" transform="translate(584,97)"/>
<path d="M0 0 C3.3 0.99 6.6 1.98 10 3 C7 4 7 4 4 3 C4 3.66 4 4.32 4 5 C2.0625 4.625 2.0625 4.625 0 4 C-0.33 3.34 -0.66 2.68 -1 2 C-0.67 1.34 -0.34 0.68 0 0 Z " fill="#A8A8AA" transform="translate(270,240)"/>
<path d="M0 0 C2 2 2 2 2 5 C2.99 5.33 3.98 5.66 5 6 C4.34 7.32 3.68 8.64 3 10 C1 9 1 9 0.33203125 7.1875 C0.16058594 6.465625 -0.01085937 5.74375 -0.1875 5 C-0.36667969 4.278125 -0.54585937 3.55625 -0.73046875 2.8125 C-0.86388672 1.9153125 -0.86388672 1.9153125 -1 1 C-0.67 0.67 -0.34 0.34 0 0 Z " fill="#9D9CA1" transform="translate(228,234)"/>
<path d="M0 0 C0.66 0 1.32 0 2 0 C1.67 1.98 1.34 3.96 1 6 C0.34 6 -0.32 6 -1 6 C-0.67 6.99 -0.34 7.98 0 9 C-0.99 8.67 -1.98 8.34 -3 8 C-2.37240135 5.07120629 -1.41377341 2.63904371 0 0 Z " fill="#8F8E94" transform="translate(508,231)"/>
<path d="M0 0 C0.99 0 1.98 0 3 0 C2.34 1.65 1.68 3.3 1 5 C1.66 5 2.32 5 3 5 C3.33 4.34 3.66 3.68 4 3 C4.66 3.33 5.32 3.66 6 4 C5 6 5 6 3 6.6875 C2.34 6.790625 1.68 6.89375 1 7 C0 6 0 6 -0.0625 2.9375 C-0.041875 1.968125 -0.02125 0.99875 0 0 Z " fill="#8F8E93" transform="translate(395,253)"/>
<path d="M0 0 C1.32 1.65 2.64 3.3 4 5 C3.34 6.32 2.68 7.64 2 9 C2 8.34 2 7.68 2 7 C1.34 7 0.68 7 0 7 C0 7.66 0 8.32 0 9 C-0.66 8.67 -1.32 8.34 -2 8 C-1.2265625 7.4121875 -1.2265625 7.4121875 -0.4375 6.8125 C0.036875 6.214375 0.51125 5.61625 1 5 C0.76956136 2.34533951 0.76956136 2.34533951 0 0 Z " fill="#9FA0A2" transform="translate(375,243)"/>
<path d="M0 0 C2.35964273 0.40683495 3.85934088 0.89814339 5.8125 2.3125 C7 4 7 4 6.6875 6.1875 C6.460625 6.785625 6.23375 7.38375 6 8 C6 7.01 6 6.02 6 5 C5.38125 4.87625 4.7625 4.7525 4.125 4.625 C2 4 2 4 0 2 C0 1.34 0 0.68 0 0 Z " fill="#ECECEB" transform="translate(41,236)"/>
<path d="M0 0 C1.32 0 2.64 0 4 0 C4.33 1.65 4.66 3.3 5 5 C3.68 5.33 2.36 5.66 1 6 C0.67 4.02 0.34 2.04 0 0 Z " fill="#9C9B9F" transform="translate(513,233)"/>
<path d="M0 0 C2 2 2 2 2.125 4.625 C2.08375 5.40875 2.0425 6.1925 2 7 C1.34 7 0.68 7 0 7 C-0.33 6.34 -0.66 5.68 -1 5 C-3.01669827 3.86649466 -3.01669827 3.86649466 -5 3 C-4.360625 2.690625 -3.72125 2.38125 -3.0625 2.0625 C-1.06389179 1.1654837 -1.06389179 1.1654837 0 0 Z " fill="#8F8F94" transform="translate(413,231)"/>
<path d="M0 0 C0.33 0 0.66 0 1 0 C1 2.31 1 4.62 1 7 C-0.65 7.66 -2.3 8.32 -4 9 C-2.68 6.03 -1.36 3.06 0 0 Z " fill="#C1423B" transform="translate(580,110)"/>
<path d="M0 0 C0.99 0.33 1.98 0.66 3 1 C0.525 5.455 0.525 5.455 -2 10 C-3.19156292 5.23374833 -2.3415946 4.12120649 0 0 Z " fill="#BE3D38" transform="translate(604,114)"/>
<path d="M0 0 C0.66 1.32 1.32 2.64 2 4 C1.01 5.485 1.01 5.485 0 7 C-0.33 6.01 -0.66 5.02 -1 4 C-3.64 3.67 -6.28 3.34 -9 3 C-9 2.67 -9 2.34 -9 2 C-6.94921875 1.77213542 -4.8984375 1.54427083 -2.84765625 1.31640625 C-0.98859771 1.18113386 -0.98859771 1.18113386 0 0 Z " fill="#ACACAE" transform="translate(313,233)"/>
<path d="M0 0 C0.33 0 0.66 0 1 0 C1.33 3.3 1.66 6.6 2 10 C0.68 9.34 -0.64 8.68 -2 8 C-1.47731534 5.23723823 -0.89130413 2.6739124 0 0 Z " fill="#9D9CA1" transform="translate(166,120)"/>
<path d="M0 0 C1.65 0 3.3 0 5 0 C4.67 1.32 4.34 2.64 4 4 C2.35 4 0.7 4 -1 4 C-0.67 2.68 -0.34 1.36 0 0 Z " fill="#E12310" transform="translate(596,117)"/>
<path d="M0 0 C0.66 0.33 1.32 0.66 2 1 C1.49396008 3.16874252 1.00016187 4.99967627 0 7 C-0.99 6.67 -1.98 6.34 -3 6 C-2.67 4.68 -2.34 3.36 -2 2 C-1.34 2 -0.68 2 0 2 C0 1.34 0 0.68 0 0 Z " fill="#929292" transform="translate(450,253)"/>
<path d="M0 0 C1.98 0 3.96 0 6 0 C5.67 1.32 5.34 2.64 5 4 C5 3.34 5 2.68 5 2 C4.34 2 3.68 2 3 2 C3 2.66 3 3.32 3 4 C2.01 3.67 1.02 3.34 0 3 C0 2.01 0 1.02 0 0 Z " fill="#919194" transform="translate(294,253)"/>
<path d="M0 0 C1.98 0 3.96 0 6 0 C5.67 1.32 5.34 2.64 5 4 C5 3.34 5 2.68 5 2 C4.34 2 3.68 2 3 2 C3 2.66 3 3.32 3 4 C2.01 3.67 1.02 3.34 0 3 C0 2.01 0 1.02 0 0 Z " fill="#919194" transform="translate(262,253)"/>
<path d="M0 0 C1.0625 1.875 1.0625 1.875 2 4 C1.67 4.66 1.34 5.32 1 6 C-2 5 -2 5 -4 3 C-4 2.34 -4 1.68 -4 1 C-2.68 0.67 -1.36 0.34 0 0 Z " fill="#909092" transform="translate(269,240)"/>
<path d="M0 0 C0.33 0 0.66 0 1 0 C1.14285714 7.42857143 1.14285714 7.42857143 0 11 C-0.66 11 -1.32 11 -2 11 C-2 9.02 -2 7.04 -2 5 C-1.34 5 -0.68 5 0 5 C0 3.35 0 1.7 0 0 Z " fill="#9E9EA0" transform="translate(323,171)"/>
<path d="M0 0 C0.66 0 1.32 0 2 0 C2 1.65 2 3.3 2 5 C-0.31 5.33 -2.62 5.66 -5 6 C-5 5.34 -5 4.68 -5 4 C-3.35 3.34 -1.7 2.68 0 2 C0 1.34 0 0.68 0 0 Z " fill="#F5F6EF" transform="translate(613,107)"/>
<path d="M0 0 C1.32 1.65 2.64 3.3 4 5 C2.625 6.5 2.625 6.5 1 8 C0.34 8 -0.32 8 -1 8 C-0.67 5.36 -0.34 2.72 0 0 Z " fill="#A2A1A6" transform="translate(268,253)"/>
<path d="M0 0 C0.66 0.33 1.32 0.66 2 1 C1.33333333 3 0.66666667 5 0 7 C-0.66 7 -1.32 7 -2 7 C-2 5.02 -2 3.04 -2 1 C-1.34 0.67 -0.68 0.34 0 0 Z " fill="#919094" transform="translate(429,247)"/>
<path d="M0 0 C0.66 1.32 1.32 2.64 2 4 C2.66 4 3.32 4 4 4 C4 4.99 4 5.98 4 7 C2.35 7 0.7 7 -1 7 C-1 6.34 -1 5.68 -1 5 C-0.34 5 0.32 5 1 5 C0.67 3.35 0.34 1.7 0 0 Z " fill="#989798" transform="translate(414,233)"/>
<path d="M0 0 C1.32 0 2.64 0 4 0 C4.33 0.99 4.66 1.98 5 3 C4.34 3.66 3.68 4.32 3 5 C2.01 5 1.02 5 0 5 C0 3.35 0 1.7 0 0 Z " fill="#908F94" transform="translate(511,230)"/>
<path d="M0 0 C-4.75 4 -4.75 4 -7 4 C-6.625 2.0625 -6.625 2.0625 -6 0 C-3.50907189 -1.24546405 -2.58919267 -0.7767578 0 0 Z " fill="#949399" transform="translate(438,232)"/>
<path d="M0 0 C0 2 0 4 0 6 C-1.32 5.34 -2.64 4.68 -4 4 C-4 3.01 -4 2.02 -4 1 C-2.68 0.67 -1.36 0.34 0 0 Z " fill="#908F94" transform="translate(301,257)"/>
<path d="M0 0 C2.18975773 3.28463659 2.99806563 6.20696275 4 10 C3.01 9.67 2.02 9.34 1 9 C0.67 6.03 0.34 3.06 0 0 Z " fill="#A9ABAB" transform="translate(521,245)"/>
</svg>
